<?xml version="1.0" ?><svg height="512px" version="1.1" viewBox="0 0 602 512" width="602px" xmlns="http://www.w3.org/2000/svg" xmlns:sketch="http://www.bohemiancoding.com/sketch/ns" xmlns:xlink="http://www.w3.org/1999/xlink"><title/><desc/><defs/><g fill="none" fill-rule="evenodd" id="Page-1" stroke="none" stroke-width="1"><path d="M147.275694,303.913288 C173.043058,399.471656 197.509349,512.000009 270.578747,512 C404.76148,511.999983 580.649655,210.052899 591.529338,183.488638 C602.409022,156.924378 629.608222,6.39356479 509.02509,0.19523694 C388.441957,-6.00307951 342.203314,137.443919 342.203314,137.443919 C342.203314,137.443919 435.587243,115.307035 428.334122,170.171919 C420.956353,225.979686 358.522835,326.935648 327.697072,326.935648 C313.190831,326.93565 316.502766,338.330557 291.431469,254.292079 C266.360174,170.2536 269.672107,119.734412 258.792425,82.5444462 C247.912745,45.3544805 221.620182,0.19523694 176.288177,9.93546599 C67.9212682,33.2196526 0.4,140.985821 0.4,140.985821 C0.4,140.985821 14.9062407,179.061259 31.225763,173.748409 C47.5452857,168.435558 58.4249659,134.787492 89.2507287,148.955099 C103.290279,155.407715 125.724541,223.990765 147.275694,303.913288 Z" fill="#FFF" id="vimeo"/></g></svg>