<?xml version="1.0" encoding="utf-8"?>
<!-- Generator: Adobe Illustrator 22.0.1, SVG Export Plug-In . SVG Version: 6.00 Build 0)  -->
<svg version="1.1" id="Слой_1" xmlns="http://www.w3.org/2000/svg" xmlns:xlink="http://www.w3.org/1999/xlink" x="0px" y="0px"
	 viewBox="0 0 9.9 7" style="enable-background:new 0 0 9.9 7;" xml:space="preserve">
<style type="text/css">
	.st0{fill:#2B2A29;}
	.st1{fill:#FC0000;}
</style>
<g id="Слой_x0020_1">
	<g id="_2169367114896">
		<g>
			<path class="st0" d="M4.9,5.9C4.8,5.9,4.8,6,4.7,6c0,0-0.1,0-0.1,0.1c0,0-0.1,0-0.1,0c0,0,0,0,0,0c0,0,0,0,0,0l0.2-0.7
				c0,0,0,0,0,0c0,0,0,0,0,0c0,0,0,0-0.1,0c0,0,0,0,0,0c0,0,0,0,0,0.1L4.3,6c0,0,0,0-0.1,0c0,0,0,0-0.1,0c0,0,0,0,0,0c0,0,0,0,0,0
				c0,0,0,0,0,0l0.1-0.5c0,0,0,0,0-0.1c0,0,0,0,0,0c0,0,0,0,0,0c0,0-0.1,0-0.1,0c0,0,0,0-0.1,0c0,0,0,0-0.1,0c0,0,0,0,0,0
				c0,0,0,0,0,0c0,0,0,0,0,0c0,0,0,0,0,0c0,0,0,0,0,0c0,0,0,0,0,0c0,0,0,0,0,0L3.9,5.9c0,0,0,0,0,0c0,0,0,0,0,0c0,0,0,0-0.1,0.1
				c0,0,0,0-0.1,0s-0.1,0-0.1,0c0,0,0,0,0,0c0,0,0,0,0,0c0,0,0,0,0-0.1c0,0,0,0,0,0c0,0,0,0,0,0c0.1-0.1,0.1-0.2,0.2-0.3
				c0-0.1,0.1-0.2,0.1-0.2c0-0.1,0-0.1,0.1-0.2c0-0.1,0-0.1,0-0.1c0,0,0-0.1,0-0.1c0,0,0,0,0,0c0,0,0,0-0.1,0c-0.1,0-0.1,0-0.2,0.1
				c0,0-0.1,0.1-0.1,0.2c0,0.1-0.1,0.2-0.1,0.3c0,0.1,0,0.2-0.1,0.4c0,0,0,0-0.1,0.1c0,0-0.1,0-0.1,0.1c0,0-0.1,0-0.1,0
				c0,0-0.1,0-0.1,0c0,0,0,0-0.1,0c0,0,0,0-0.1,0c0,0,0,0,0-0.1c0.1,0,0.2-0.1,0.2-0.1C3,5.8,3,5.7,3.1,5.7c0,0,0-0.1,0.1-0.1
				c0,0,0-0.1,0-0.1c0,0,0,0,0-0.1c0,0,0,0,0-0.1c0,0,0,0-0.1,0c0,0-0.1,0-0.1,0c0,0-0.1,0-0.1,0c0,0-0.1,0-0.1,0.1
				c0,0-0.1,0.1-0.1,0.1c0,0,0,0.1-0.1,0.1c0,0,0,0.1,0,0.1c0,0,0,0.1,0,0.1c0,0,0,0-0.1,0c0,0-0.1,0-0.1,0.1c0,0-0.1,0-0.1,0
				c0,0-0.1,0-0.1,0c0,0-0.1,0-0.1,0c0,0,0,0-0.1,0c0,0,0,0,0-0.1c0.1,0,0.2-0.1,0.2-0.1c0.1,0,0.1-0.1,0.1-0.1c0,0,0.1-0.1,0.1-0.1
				c0,0,0-0.1,0-0.1c0,0,0,0,0-0.1c0,0,0,0,0-0.1c0,0,0,0-0.1,0c0,0-0.1,0-0.1,0c-0.1,0-0.1,0-0.1,0c0,0-0.1,0-0.1,0.1
				c0,0-0.1,0.1-0.1,0.1c0,0,0,0.1-0.1,0.1c0,0,0,0.1,0,0.1c0,0,0,0.1,0,0.1c0,0.1,0,0.1,0,0.1c0,0,0,0.1,0.1,0.1c0,0,0.1,0,0.1,0.1
				c0,0,0.1,0,0.1,0c0,0,0.1,0,0.1,0c0,0,0.1,0,0.1-0.1c0,0,0.1-0.1,0.1-0.1c0,0,0,0,0.1,0c0,0,0,0,0,0c0,0,0,0.1,0.1,0.1
				c0,0,0.1,0,0.1,0.1c0,0,0.1,0,0.1,0c0,0,0.1,0,0.1,0c0,0,0.1,0,0.1-0.1c0,0,0.1-0.1,0.1-0.1c0,0,0,0,0,0c0,0,0,0,0,0.1
				c0,0,0,0.1,0,0.1c0,0,0,0,0.1,0c0,0,0.1,0,0.1,0c0,0,0.1,0,0.1,0c0,0,0.1,0,0.1,0c0,0,0.1,0,0.1-0.1c0,0,0,0,0.1-0.1
				c0,0,0,0,0,0.1c0,0,0,0.1,0,0.1c0,0,0.1,0,0.1,0c0,0,0.1,0,0.1,0c0,0,0.1,0,0.1-0.1c0,0,0,0,0.1-0.1c0,0,0,0,0,0.1c0,0,0,0,0,0.1
				C4.2,6.3,4.1,6.3,4,6.3C4,6.4,3.9,6.4,3.9,6.4c0,0-0.1,0.1-0.1,0.1c0,0,0,0.1,0,0.2c0,0,0,0.1,0,0.1c0,0,0,0,0,0.1s0,0,0.1,0
				c0,0,0,0,0.1,0c0.1,0,0.1,0,0.2,0c0.1,0,0.1-0.1,0.1-0.1c0,0,0.1-0.1,0.1-0.2c0-0.1,0.1-0.1,0.1-0.2c0-0.1,0-0.1,0.1-0.2
				c0,0,0.1,0,0.1,0c0,0,0.1,0,0.1-0.1c0,0,0,0,0,0c0,0,0,0,0,0.1c0,0,0,0,0.1,0c0,0,0,0,0.1,0s0.1,0,0.1,0c0,0,0,0,0.1,0
				c0,0,0.1,0,0.1,0c0,0,0,0,0.1,0c0,0,0,0,0.1,0c0,0,0.1,0,0.1,0c0.1,0,0.1,0,0.2,0c0.1,0,0.1-0.1,0.2-0.1c0,0,0.1-0.1,0.1-0.1
				c0-0.1,0.1-0.1,0.1-0.2C6,5.7,6,5.6,6,5.5c0-0.1,0-0.1,0-0.2c0-0.1,0-0.1,0-0.2C6,5.1,6,5.1,5.9,5c0,0-0.1-0.1-0.1-0.1
				c0,0-0.1-0.1-0.2-0.1c-0.1,0-0.1,0-0.2,0c-0.1,0-0.2,0-0.3,0C5.1,4.8,5,4.9,5,4.9S4.9,5,4.9,5c0,0,0,0.1,0,0.1c0,0,0,0.1,0,0.1
				c0,0,0,0,0.1,0.1c0,0,0,0,0.1,0c0,0,0,0,0,0c0,0,0,0,0,0c0,0,0,0,0,0c0,0,0,0,0-0.1c0,0,0-0.1,0-0.1C5,5,5.1,5,5.1,5
				c0,0,0.1,0,0.1-0.1c0,0,0.1,0,0.2,0c0.1,0,0.1,0,0.2,0c0,0,0.1,0.1,0.1,0.1c0,0,0,0.1,0.1,0.1c0,0.1,0,0.1,0,0.2
				c0,0.1,0,0.1,0,0.2c0,0.1,0,0.1,0,0.2c0,0.1,0,0.1-0.1,0.2c0,0-0.1,0.1-0.1,0.1c0,0-0.1,0.1-0.1,0.1c0,0-0.1,0-0.1,0
				c0,0,0,0-0.1,0c0,0,0,0-0.1,0c0,0,0-0.1,0.1-0.1c0,0,0-0.1,0.1-0.2L5.5,5c0,0,0,0,0,0c0,0,0,0,0,0s0,0-0.1,0c0,0,0,0-0.1,0
				c0,0,0,0,0,0.1L5.1,5.8C5.1,5.9,5,6,5,6C5,6,5,6,4.9,5.9C4.9,5.9,4.9,5.9,4.9,5.9z M2.2,5.4C2.2,5.4,2.2,5.4,2.2,5.4
				C2.2,5.5,2.2,5.5,2.2,5.4c0,0.1,0,0.1,0,0.2c0,0-0.1,0.1-0.1,0.1c0,0-0.1,0.1-0.2,0.1c0,0,0,0,0-0.1c0,0,0-0.1,0-0.1
				c0,0,0-0.1,0-0.1c0,0,0-0.1,0-0.1C2.1,5.5,2.1,5.5,2.2,5.4C2.1,5.4,2.2,5.4,2.2,5.4z M3,5.4C3,5.4,3,5.4,3,5.4C3,5.5,3,5.5,3,5.4
				C3,5.5,3,5.6,3,5.6c0,0-0.1,0.1-0.1,0.1c0,0-0.1,0.1-0.2,0.1c0,0,0,0,0-0.1c0,0,0-0.1,0-0.1c0,0,0-0.1,0-0.1s0-0.1,0-0.1
				C2.8,5.5,2.9,5.5,3,5.4C2.9,5.4,2.9,5.4,3,5.4z M3.7,5C3.8,5,3.8,5,3.7,5C3.8,5,3.8,5,3.7,5c0,0.1,0,0.1,0,0.1c0,0,0,0.1,0,0.1
				c0,0.1,0,0.1-0.1,0.2S3.6,5.6,3.5,5.7c0-0.1,0-0.2,0-0.3c0-0.1,0-0.2,0-0.2C3.7,5.1,3.7,5.1,3.7,5C3.7,5,3.7,5,3.7,5z M3.9,6.8
				C3.9,6.8,3.9,6.8,3.9,6.8C3.9,6.8,3.9,6.8,3.9,6.8C3.9,6.7,3.8,6.7,3.9,6.8c-0.1-0.1-0.1-0.2,0-0.2S4,6.5,4,6.5
				c0.1,0,0.1-0.1,0.2-0.1c0,0.1-0.1,0.2-0.1,0.2c0,0.1-0.1,0.1-0.1,0.1C4,6.8,4,6.8,3.9,6.8z M4.9,6.1C4.8,6.1,4.8,6.1,4.9,6.1
				C4.8,6.1,4.8,6.1,4.9,6.1C4.8,6,4.8,6,4.9,6.1C4.8,6,4.8,6,4.9,6.1C4.8,6,4.9,6,4.9,6.1C4.9,6,4.9,6,4.9,6.1C4.9,6,5,6,5,6.1
				C5,6.1,4.9,6.1,4.9,6.1C4.9,6.1,4.9,6.1,4.9,6.1z"/>
			<g>
				<path class="st0" d="M0.4,5.2c0,0,0-0.1,0-0.1c0,0,0-0.1,0.1-0.1c0,0,0.1,0,0.1-0.1c0,0,0.1,0,0.1,0L0.4,6.2c0,0,0,0,0,0
					c0,0,0,0,0.1,0c0,0,0,0,0.1,0c0,0,0,0,0.1,0c0,0,0,0,0-0.1l0.1-0.6c0,0,0,0,0.1,0c0,0,0,0,0,0c0,0,0,0,0.1,0s0,0,0.1,0
					c0,0,0,0,0,0c0,0,0,0,0,0c0,0,0,0,0,0c0,0,0,0-0.1,0c0,0,0,0-0.1,0c0,0,0,0-0.1,0L0.9,5C0.9,5,1,5,1,5C1,5,1,5,1.1,5
					s0.1,0,0.1,0s0.1,0,0.1,0c0,0,0,0,0.1-0.1c0,0,0-0.1,0-0.1c0,0,0-0.1,0-0.1c0,0-0.1,0-0.1,0c0,0-0.1,0-0.1,0c0,0-0.1,0-0.1,0
					c0,0-0.1,0-0.1,0c0,0-0.1,0-0.1,0c0,0-0.1,0-0.1,0c0,0-0.1,0-0.1,0c0,0-0.1,0-0.1,0c0,0-0.1,0-0.1,0.1c0,0,0,0.1-0.1,0.1
					s0,0.1,0,0.1c0,0,0,0.1,0,0.1c0,0,0,0,0,0.1c0,0,0,0,0.1,0c0,0,0,0,0,0c0,0,0,0,0,0C0.4,5.3,0.4,5.3,0.4,5.2
					C0.4,5.3,0.4,5.3,0.4,5.2C0.4,5.2,0.4,5.2,0.4,5.2z"/>
				<path class="st0" d="M1.4,5.4C1.4,5.4,1.4,5.3,1.4,5.4C1.4,5.3,1.3,5.3,1.4,5.4C1.3,5.3,1.3,5.3,1.2,5.3c0,0,0,0-0.1,0
					c0,0,0,0-0.1,0c0,0,0,0,0,0c0,0,0,0,0,0c0,0,0,0,0,0s0,0,0,0c0,0,0,0,0,0s0,0,0,0c0,0,0,0,0,0L1,6.2c0,0,0,0,0,0c0,0,0,0,0,0
					c0,0,0,0,0.1,0c0,0,0,0,0.1,0c0,0,0,0,0-0.1l0-0.1c0-0.1,0-0.2,0.1-0.2c0-0.1,0-0.1,0-0.1c0,0,0-0.1,0-0.1c0,0,0,0,0,0
					c0,0,0,0,0,0c0,0,0,0,0,0c0,0,0,0,0,0c0,0,0,0,0,0c0,0,0,0,0,0c0,0,0,0,0,0c0,0,0,0,0,0c0,0,0,0,0.1,0c0,0,0,0,0,0
					c0,0,0,0,0-0.1c0,0,0,0,0-0.1c0,0,0,0,0-0.1c0,0,0,0,0,0c0,0,0,0-0.1,0s-0.1,0-0.1,0C1.5,5.3,1.5,5.3,1.4,5.4
					C1.4,5.4,1.4,5.4,1.4,5.4C1.4,5.5,1.4,5.4,1.4,5.4z"/>
				<path class="st0" d="M9.4,5.5C9.4,5.4,9.4,5.4,9.4,5.5c0-0.1,0-0.1,0-0.1c0,0,0,0-0.1,0c0,0-0.1,0-0.1,0c0,0-0.1,0-0.1,0
					c0,0-0.1,0-0.1,0.1c0,0-0.1,0.1-0.1,0.1c0,0,0,0.1-0.1,0.1c0,0,0,0.1,0,0.1c0,0,0,0.1,0,0.1c0,0,0,0,0,0c0,0-0.1,0-0.1,0.1
					c0,0-0.1,0-0.1,0c0,0-0.1,0-0.1,0c0,0-0.1,0-0.1,0c0,0,0,0-0.1-0.1c0,0,0-0.1,0-0.1c0-0.1,0-0.1,0-0.2c0-0.1,0-0.1,0.1-0.1
					c0,0,0-0.1,0.1-0.1c0,0,0,0,0.1,0c0,0,0,0,0,0s0,0,0,0c0,0,0,0,0,0c0,0,0,0,0,0c0,0,0,0,0,0c0,0,0,0,0,0c0,0,0,0,0,0
					c0,0,0,0,0.1,0c0,0,0,0,0,0c0,0,0,0,0-0.1c0-0.1,0-0.1-0.1-0.1c0,0-0.1,0-0.2,0c0,0-0.1,0-0.1,0c0,0-0.1,0-0.1,0.1
					c0,0-0.1,0.1-0.1,0.1c0,0,0,0.1-0.1,0.1c0,0,0,0.1,0,0.1s0,0.1,0,0.1c0,0,0,0,0,0.1c0,0,0,0,0,0c0,0,0,0-0.1,0c0,0,0,0-0.1,0
					c0,0,0,0,0,0c0,0,0,0,0-0.1l0.1-0.4c0,0,0-0.1,0-0.1c0,0,0-0.1,0-0.1c0,0,0,0,0,0c0,0,0,0-0.1,0c0,0-0.1,0-0.1,0
					c0,0-0.1,0-0.1,0.1c0,0-0.1,0.1-0.1,0.1l0-0.1c0,0,0,0,0-0.1c0,0,0,0,0,0c0,0,0,0-0.1,0c0,0,0,0-0.1,0c0,0,0,0-0.1,0
					c0,0,0,0-0.1,0c0,0,0,0,0,0c0,0,0,0,0,0c0,0,0,0,0,0s0,0,0,0c0,0,0,0,0,0c0,0,0,0,0,0c0,0,0,0,0,0L7,6c0,0,0,0,0,0
					c0,0,0,0-0.1,0c0,0,0,0-0.1,0s0,0,0,0c0,0,0,0,0,0c0,0,0,0,0-0.1l0.1-0.6c0,0,0,0,0,0c0,0,0,0,0,0c0,0,0,0-0.1,0c0,0,0,0,0,0
					c0,0,0,0-0.1,0c0,0-0.1,0-0.1,0l0,0c0,0-0.1,0-0.1,0c0,0-0.1,0.1-0.1,0.1c0,0-0.1,0.1-0.1,0.1c0,0,0,0.1-0.1,0.2
					c0,0.1,0,0.1,0,0.2c0,0,0,0,0,0.1c0,0,0,0.1,0,0.1c0,0,0,0.1,0,0.1c0,0,0,0,0.1,0.1c0,0,0.1,0,0.1,0c0,0,0.1,0,0.1,0
					c0,0,0.1,0,0.1-0.1c0,0,0.1-0.1,0.1-0.1c0,0,0,0.1,0,0.1c0,0,0,0,0,0.1c0,0,0,0,0.1,0c0,0,0,0,0.1,0c0,0,0.1,0,0.1,0
					c0,0,0.1,0,0.1-0.1c0,0,0,0,0,0l0,0.1c0,0,0,0,0,0c0,0,0,0,0,0c0,0,0,0,0.1,0c0,0,0,0,0.1,0c0,0,0,0,0-0.1l0.1-0.5c0,0,0,0,0,0
					c0,0,0,0,0.1,0c0,0,0,0,0,0c0,0,0,0,0,0c0,0,0,0,0,0c0,0,0,0,0,0.1L7.5,6c0,0,0,0.1,0,0.1c0,0,0,0.1,0,0.1c0,0,0,0,0,0
					c0,0,0,0,0.1,0c0,0,0.1,0,0.1,0c0,0,0.1,0,0.1-0.1c0,0,0.1,0,0.1-0.1c0,0,0,0.1,0.1,0.1c0,0,0.1,0,0.1,0.1c0,0,0.1,0,0.1,0
					c0,0,0.1,0,0.1,0c0,0,0.1,0,0.1-0.1c0,0,0.1-0.1,0.1-0.1c0,0,0,0,0,0c0,0,0,0,0,0c0,0,0,0.1,0.1,0.1c0,0,0.1,0,0.1,0.1
					c0,0,0.1,0,0.1,0c0,0,0.1,0,0.1,0c0,0,0.1,0,0.1-0.1c0,0,0.1-0.1,0.1-0.1c0,0,0.1-0.1,0.1-0.1c0,0,0,0,0,0s0,0,0,0c0,0,0,0,0,0
					c0,0,0,0-0.1,0.1c0,0-0.1,0-0.1,0.1c0,0-0.1,0-0.1,0c0,0-0.1,0-0.1,0c0,0-0.1,0-0.1,0c0,0,0,0-0.1,0c0,0,0,0,0-0.1
					c0.1,0,0.2-0.1,0.2-0.1c0.1,0,0.1-0.1,0.1-0.1c0,0,0.1-0.1,0.1-0.1C9.4,5.5,9.4,5.5,9.4,5.5z M6.6,5.9C6.5,6,6.5,6,6.6,5.9
					C6.5,6,6.5,6,6.4,6c0,0,0,0-0.1,0c0,0,0,0,0,0c0,0,0,0,0,0c0,0,0,0,0-0.1c0,0,0-0.1,0-0.1c0,0,0-0.1,0-0.1c0,0,0-0.1,0.1-0.1
					c0,0,0.1-0.1,0.1-0.1c0,0,0.1,0,0.1,0c0,0,0,0,0,0c0,0,0,0,0,0C6.7,5.4,6.6,5.9,6.6,5.9z M9.2,5.4C9.2,5.4,9.2,5.4,9.2,5.4
					C9.2,5.5,9.2,5.5,9.2,5.4c0,0.1,0,0.1,0,0.2c0,0-0.1,0.1-0.1,0.1c0,0-0.1,0.1-0.2,0.1c0,0,0,0,0-0.1c0,0,0-0.1,0-0.1
					c0,0,0-0.1,0-0.1c0,0,0-0.1,0-0.1C9.1,5.5,9.1,5.5,9.2,5.4C9.1,5.4,9.2,5.4,9.2,5.4z"/>
			</g>
		</g>
		<path class="st1" d="M2.1,2.8C2,2.9,1.9,3.1,1.9,3.2c0.1,0,0.1,0.1,0.2,0c0,0,0.1,0,0.1,0c0.1,0,0.1,0,0.2,0c0,0,0.2,0.2,0.2,0.2
			C3,3.8,2.8,3.7,3,3.9C3.1,4,3.3,4.1,3.4,4.2c0,0,0,0.1,0,0.1c0,0.2,0,0,0,0.2c0,0,0,0.1,0,0.1c0,0,0.1,0,0.1,0c0,0,0,0,0.1,0
			c0.1,0,0.1,0,0.2,0c0,0,0,0,0.1,0c0,0,0.1,0,0.1,0c0,0,0.1,0,0.1,0l0,0.1c0.1,0,0.1,0,0.2,0s0.1-0.1,0.1-0.1l0.2-0.2c0,0,0,0,0,0
			l0.1-0.1C4.5,4,4.4,3.9,4.3,3.9c0,0,0,0.1-0.1,0.1c0,0,0,0,0,0.1c0,0-0.1,0.1-0.1,0.1c0,0-0.1,0.1-0.1,0.1c0,0,0,0,0,0.1
			c-0.1,0.1,0,0.1-0.1,0.1c-0.1,0,0,0-0.2,0.1c0,0,0-0.1,0-0.1c0-0.1,0-0.2-0.1-0.2c-0.1,0-0.2-0.3-0.3-0.4C3.1,3.6,3.1,3.7,3,3.5
			C3,3.5,3,3.4,3,3.3l0,0C2.7,3.2,2.2,3,2.1,2.8z M4.8,3.9C4.8,3.9,4.9,3.9,4.8,3.9l0.2-0.3c0,0,0-0.1,0.1-0.1
			C5.1,3.3,4.9,3.1,4.9,3C4.8,3.1,4.7,3.3,4.6,3.4c-0.1,0.1,0,0.1-0.1,0.2c0,0,0,0-0.1,0.1c0,0,0,0,0,0.1C4.6,3.7,4.7,3.8,4.8,3.9z
			 M5.4,3.2L5.4,3.2C5.5,3.1,5.5,3,5.6,3C5.8,3.1,6,3.3,6.2,3.5c0,0,0,0,0,0l0.1,0.1c0,0,0,0,0,0c0.1,0.2,0.3,0.4,0.4,0.5
			c0.1,0,0.1,0.2,0.2,0.3c0.1,0.1,0,0,0.1,0.1h0.2c0.1,0.1,0.2,0.1,0.3,0c0-0.1-0.1-0.1-0.1-0.2c0,0,0,0,0-0.1c0,0,0-0.1,0-0.1
			C7.4,4.3,7.3,4.2,7.2,4.1C7.2,4,7.1,4,7.1,3.9C7,3.8,7,3.8,6.9,3.7C6.9,3.6,6.8,3.6,6.7,3.5c0,0-0.1-0.1-0.1-0.2
			c0-0.1-0.3-0.4-0.4-0.5c0,0,0,0,0,0c-0.1-0.1,0-0.2-0.1-0.3c0-0.1-0.1-0.2,0-0.3c0,0,0-0.1,0-0.1c0-0.2,0.1-0.4,0.2-0.5
			c0.1-0.1,0.3,0,0.4,0c0,0.1,0.2,0.3,0.2,0.4c0,0,0,0.1-0.1,0.1c0,0-0.1,0-0.1,0c0,0,0,0,0,0.1c0.1,0,0.1,0,0.2,0.1
			c0,0.1,0,0.1,0,0.2c0,0.1,0,0.1,0,0c0,0,0,0,0,0c0,0,0,0,0,0c0,0,0-0.1,0-0.2c0,0,0-0.1,0-0.1c0,0,0-0.1,0-0.1
			c0-0.2,0-0.4-0.1-0.6c0,0-0.1-0.1-0.1-0.1c-0.1,0-0.3-0.1-0.4-0.1c0,0-0.1,0-0.1,0C6.2,1,6,1,6,1L5.9,1l0,0c0-0.1,0-0.1,0-0.2
			c0-0.1,0-0.1,0-0.2c0,0,0,0,0-0.1c-0.1,0-0.1,0-0.2,0c-0.1,0-0.1,0-0.2,0c-0.1,0-0.1,0.1-0.1,0.1l0,0l0,0.1c0,0,0,0,0.1,0.1
			c0,0,0,0,0,0.1l0,0.1l0.1,0c0,0,0,0,0,0c0,0,0,0,0,0c0,0,0,0,0,0c0,0,0,0,0,0c0,0,0,0,0,0c0,0,0,0,0,0c0,0,0,0,0,0l0.1,0
			c0,0.1-0.1,0.2-0.2,0.2c0,0-0.1,0.1-0.1,0.1C5.2,1.6,5,1.6,5,1.8c0,0.1-0.1,0.1-0.2,0.1c-0.2,0-0.2,0-0.4-0.1c0,0,0,0-0.1,0
			c-0.1,0-0.1,0-0.1,0c0,0.1,0,0.2,0,0.2c0.1,0,0.1,0,0.2,0c0,0,0.5,0.2,0.7,0.2c0,0,0.3-0.2,0.4-0.2c0,0.2,0,0.2,0,0.5
			c0,0,0,0.1,0,0.1l0,0c0,0,0,0,0,0.1c0,0,0,0,0,0.1l0,0C5.2,2.7,5.3,3,5.4,3.2z M3.9,1.7C3.9,1.7,3.8,1.7,3.9,1.7
			c-0.2,0-0.3,0-0.4,0c0,0-0.1,0-0.1,0c-0.1,0-0.3,0-0.4,0L2.8,1.6l0.1-0.1h0c0,0,0.1,0,0.1,0c0,0,0,0,0,0c0,0,0,0,0,0c0,0,0,0,0,0
			h0c0,0,0,0,0,0c0,0,0,0,0,0c0,0,0,0,0,0c0,0,0,0,0,0c0,0,0,0,0,0c0,0,0,0,0,0c0,0,0,0,0-0.1c0,0,0,0,0,0c0,0,0,0,0,0c0,0,0,0,0,0
			c0,0,0-0.1,0-0.1c0,0,0-0.1-0.1-0.1C3,0.9,2.9,0.9,2.8,0.9C2.7,1,2.7,1.1,2.7,1.1c0,0,0,0,0,0c-0.1,0-0.1,0.1-0.1,0.2c0,0,0,0,0,0
			c0,0,0,0,0.1,0c0,0-0.1,0.1-0.1,0.1c0,0-0.1,0-0.1-0.1c0-0.2,0.1-0.5,0.2-0.6C2.8,0.7,3,0.4,3.1,0.4c0.1,0,0.1,0,0.1,0
			c0,0,0.1,0.1,0.1,0.1c0,0,0,0,0,0c0,0-0.1-0.1-0.1-0.1c-0.1,0-0.1-0.1-0.2,0l0,0l0,0c0,0,0,0-0.1,0C3,0.3,2.8,0.5,2.7,0.5
			C2.6,0.7,2.6,0.7,2.5,0.9C2.4,1.1,2.3,1.4,2.2,1.6c0,0.1,0,0.3,0,0.5C2.5,2.2,2.7,2,2.9,2c0.1,0,0.2,0,0.2,0c0.1,0,0.2,0,0.3,0
			c0,0,0.1,0,0.1,0c0.1,0,0.3-0.1,0.4-0.1C3.9,1.8,3.9,1.8,3.9,1.7z M3,2.9C3,2.9,3,2.8,3,2.9C3,2.6,3.1,2.6,3.2,2.6
			C3.2,2.6,3.1,2.8,3,2.9C3,2.9,3,2.9,3,2.9C3.1,3,3.1,3,3.1,3c0.2-0.2,0.4-0.6,0.5-0.7c0-0.1,0-0.2-0.2-0.2c-0.1,0-0.2,0-0.2,0
			C3.1,2.2,2.8,2.4,2.3,2.4C2.4,2.5,2.8,2.8,3,2.9z"/>
		<path class="st0" d="M3.7,2c0.1,0,0.1,0,0.2-0.1c0.1-0.2,0-0.4-0.2-0.4c0,0-0.1,0-0.1,0.1c0,0-0.1,0-0.2,0c-0.1,0-0.1,0-0.2,0
			c0.1-0.2,0.2-0.3,0.4-0.3C3.9,1.3,4.2,1.6,4,1.9C3.9,2.1,3.7,2,3.7,2z M4.1,4.1C3.8,3.8,4.2,3.7,4.4,3.9C4.5,4,4.7,4.1,4.9,4.2
			C4.7,4.3,4.7,4.3,4.5,4.3c0,0,0,0.1-0.1,0.1c0.2,0,0.4,0,0.6-0.1c0.2,0.1,0.4,0.2,0.6,0.3c0.5,0.1,0.9,0,1.2-0.1
			C6.9,4.4,6.8,4.3,6.7,4.2c-0.4,0.2-0.9,0.2-1.5,0c0.1-0.1,0.2-0.2,0.2-0.4c0-0.4-0.4-1.1-0.6-1.6c-0.1,0-0.1,0-0.2,0
			c0,0.1,0,0.2,0.1,0.4C4.9,3,5.5,3.7,5,4.1C4.9,4,4.7,3.9,4.5,3.7C4.1,3.5,3.6,3.8,4.1,4.1C4,4.1,4.1,4.1,4.1,4.1z M4.8,1.8
			c0-0.1,0-0.2,0-0.3C4.7,1.6,4.7,1.7,4.6,1.8C4.7,1.8,4.7,1.8,4.8,1.8z M7.4,4.2c1.1-1,1.1-3.2-0.6-3.5c-0.2,0-0.5,0-0.6-0.1
			s0-0.2,0-0.2C6,0.4,5.9,0.6,6,0.7C6.1,0.8,6.7,0.9,6.8,1c0.9,0.3,1.1,1.6,0.7,2.4C7.4,3.6,7.3,3.8,7.1,3.9C7.2,4,7.3,4.1,7.4,4.2z
			 M3.3,3.7C3.2,3.2,2.8,3.2,2.5,3C2,2.8,1.7,2.4,1.7,1.8c0,0,0-0.1,0-0.1l0,0l0,0c0,0,0,0,0,0C1.8,1.3,2,1,2.1,0.7
			C2,0.7,1.9,0.7,1.8,0.6c-0.1-0.1-0.1-0.3,0-0.4c0.1-0.1,0.3-0.1,0.4,0c0.1,0.1,0.1,0.2,0.1,0.4l0,0c0.1,0,0.2,0,0.2,0
			c0,0-0.1,0.1-0.1,0.1c-0.1,0-0.1,0-0.2,0l0,0l0,0c0,0.1,0,0.1,0,0.2c0,0.1-0.1,0.3-0.1,0.4c-0.2,0.7,0,1,0.7,0.7
			C3,1.9,3.1,2,3.3,1.9C3.2,2.1,3.1,2.2,2.9,2.3C2.7,2.3,2.4,2.4,2.2,2.3c0,0.1,0.1,0.1,0.2,0.2c0.3,0.3,0.8,0.4,1,0.9
			c0.1,0.2,0.1,0.4,0,0.6C3.4,4,3.4,3.9,3.3,3.8C3.3,3.8,3.3,3.8,3.3,3.7z M2.2,0.6L2.2,0.6L2.2,0.6C2,0.6,1.8,0.5,1.8,0.4
			c0-0.1,0.2-0.2,0.3,0C2.2,0.4,2.2,0.5,2.2,0.6z M2.9,0.6c0.7,0,1.4-0.3,1.5-0.6C4.7,0.4,4,0.7,3.3,0.8c-0.2,0-0.4,0-0.5,0
			C2.8,0.7,2.9,0.7,2.9,0.6z M3.4,4.3C3.3,4.4,3.2,4.5,3.1,4.6c-0.4,0.3-1,0.1-0.6-0.1c0.1,0.2,0.2,0.2,0.4,0.1
			C3,4.5,3.2,4.4,3.2,4.2C3.3,4.2,3.3,4.2,3.4,4.3z"/>
		<g>
			<path class="st0" d="M4.5,6.7L4.5,6.7L4.5,6.7C4.5,6.7,4.5,6.7,4.5,6.7L4.5,6.7L4.5,6.7l0,0.1l0,0l0,0c0,0,0,0,0,0c0,0,0,0,0,0h0
				l0,0c0,0,0,0,0,0l0,0L4.5,6.7l-0.1,0l0,0c0,0,0,0,0,0l0,0v0v0l0,0c0,0,0,0,0,0l0,0L4.5,6.7L4.5,6.7C4.5,6.7,4.5,6.7,4.5,6.7
				L4.5,6.7C4.5,6.7,4.5,6.7,4.5,6.7z M4.6,6.8C4.6,6.8,4.6,6.8,4.6,6.8L4.6,6.8L4.6,6.8C4.6,6.8,4.6,6.8,4.6,6.8L4.6,6.8L4.6,6.8
				L4.6,6.8C4.6,6.8,4.6,6.8,4.6,6.8C4.6,6.8,4.6,6.8,4.6,6.8c-0.1,0-0.1,0-0.1,0c0,0,0,0,0,0c0,0,0,0,0,0c0,0,0,0,0,0c0,0,0,0,0,0
				c0,0,0,0,0,0C4.5,6.8,4.5,6.8,4.6,6.8C4.6,6.8,4.6,6.8,4.6,6.8L4.6,6.8L4.6,6.8c0-0.1,0-0.1,0-0.1l0,0c0,0,0,0,0,0h0c0,0,0,0,0,0
				c0,0,0,0,0,0c0,0,0,0,0,0l0,0h0l0,0c0,0,0,0,0,0l0,0c0,0,0,0,0,0s0,0,0,0h0c0,0,0,0,0,0c0,0,0,0,0,0c0,0,0,0,0,0c0,0,0,0,0,0
				s0,0,0,0c0,0,0,0,0,0C4.6,6.7,4.6,6.7,4.6,6.8C4.6,6.7,4.6,6.8,4.6,6.8z M4.6,6.8L4.6,6.8C4.6,6.8,4.6,6.8,4.6,6.8L4.6,6.8
				C4.6,6.8,4.6,6.8,4.6,6.8C4.5,6.8,4.5,6.8,4.6,6.8C4.5,6.8,4.5,6.8,4.6,6.8L4.6,6.8C4.6,6.8,4.6,6.8,4.6,6.8
				C4.6,6.8,4.6,6.8,4.6,6.8C4.6,6.8,4.6,6.8,4.6,6.8z M4.8,6.8L4.8,6.8L4.8,6.8L4.8,6.8C4.8,6.8,4.8,6.8,4.8,6.8L4.8,6.8
				C4.8,6.8,4.8,6.8,4.8,6.8L4.8,6.8L4.8,6.8L4.8,6.8L4.8,6.8L4.8,6.8L4.8,6.8L4.8,6.8c-0.1,0-0.1,0-0.1,0h0h0h0l0,0l0,0V6.7v0l0,0
				h0h0h0c0,0,0,0,0,0l0,0v0L4.8,6.8L4.8,6.8l0-0.1v0l0,0c0,0,0,0,0,0h0c0,0,0,0,0,0h0l0,0v0V6.8z M5,6.9L5,6.9C5,6.9,5,6.9,5,6.9
				C5,6.9,5,6.9,5,6.9L5,6.9L5,6.9l-0.1,0c0,0,0,0,0,0l0,0V6.7c0,0,0,0,0,0l0,0c0,0,0,0,0,0c0,0,0,0,0,0c0,0,0,0,0,0l0,0
				c0,0,0,0,0,0v0v0.1L5,6.9L5,6.7v0h0l0,0c0,0,0,0,0,0c0,0,0,0,0,0c0,0,0,0,0,0l0,0l0,0L5,6.9L5,6.9C5,6.8,5,6.8,5,6.9L5,6.9
				C5,6.8,5,6.9,5,6.9z M5.3,6.8C5.3,6.8,5.3,6.8,5.3,6.8C5.3,6.8,5.3,6.8,5.3,6.8C5.3,6.8,5.2,6.8,5.3,6.8C5.2,6.8,5.2,6.8,5.3,6.8
				C5.2,6.8,5.2,6.8,5.2,6.8s0,0,0,0c0,0,0,0,0,0c0,0,0,0,0,0h0v0.1l0,0c0,0,0,0,0,0l0,0c0,0,0,0,0,0c0,0,0,0,0,0c0,0,0,0,0,0l0,0
				l0,0V6.7v0l0,0c0,0,0,0,0,0c0,0,0,0,0,0c0,0,0,0,0,0l0,0c0,0,0,0,0,0v0v0h0c0,0,0,0,0,0c0,0,0,0,0,0c0,0,0,0,0,0
				C5.2,6.7,5.2,6.7,5.3,6.8C5.2,6.7,5.2,6.7,5.3,6.8C5.3,6.7,5.3,6.7,5.3,6.8C5.3,6.7,5.3,6.7,5.3,6.8C5.3,6.7,5.3,6.8,5.3,6.8z
				 M5.2,6.8C5.2,6.8,5.2,6.8,5.2,6.8C5.2,6.7,5.2,6.7,5.2,6.8C5.2,6.7,5.2,6.7,5.2,6.8C5.2,6.7,5.2,6.7,5.2,6.8L5.2,6.8
				C5.2,6.7,5.2,6.7,5.2,6.8C5.2,6.7,5.2,6.7,5.2,6.8C5.2,6.8,5.2,6.8,5.2,6.8C5.2,6.8,5.2,6.8,5.2,6.8C5.2,6.8,5.2,6.8,5.2,6.8
				C5.2,6.8,5.2,6.8,5.2,6.8C5.2,6.8,5.2,6.8,5.2,6.8C5.2,6.8,5.2,6.8,5.2,6.8C5.2,6.8,5.2,6.8,5.2,6.8C5.2,6.8,5.2,6.8,5.2,6.8
				C5.2,6.8,5.2,6.8,5.2,6.8z M5.5,6.8C5.5,6.8,5.5,6.8,5.5,6.8C5.4,6.8,5.4,6.8,5.5,6.8C5.4,6.8,5.4,6.8,5.5,6.8
				C5.4,6.8,5.4,6.8,5.5,6.8L5.5,6.8L5.5,6.8l-0.1,0h0c0,0,0,0,0,0c0,0,0,0,0,0V6.7c0,0,0,0,0,0c0,0,0,0,0,0c0,0,0,0,0,0
				c0,0,0,0,0,0h0c0,0,0,0,0,0c0,0,0,0,0,0C5.4,6.7,5.4,6.7,5.5,6.8L5.5,6.8C5.4,6.7,5.4,6.7,5.5,6.8C5.4,6.7,5.4,6.7,5.5,6.8
				C5.4,6.8,5.4,6.8,5.5,6.8C5.4,6.8,5.4,6.8,5.5,6.8C5.5,6.8,5.5,6.8,5.5,6.8z M5.4,6.7C5.4,6.7,5.4,6.7,5.4,6.7L5.4,6.7L5.4,6.7
				C5.4,6.7,5.4,6.7,5.4,6.7C5.4,6.7,5.4,6.7,5.4,6.7C5.4,6.7,5.4,6.7,5.4,6.7L5.4,6.7L5.4,6.7C5.4,6.8,5.4,6.7,5.4,6.7
				C5.4,6.7,5.4,6.7,5.4,6.7z M5.4,6.8L5.4,6.8L5.4,6.8C5.4,6.8,5.4,6.8,5.4,6.8C5.4,6.8,5.4,6.8,5.4,6.8L5.4,6.8L5.4,6.8L5.4,6.8
				L5.4,6.8C5.4,6.8,5.4,6.8,5.4,6.8C5.4,6.8,5.4,6.8,5.4,6.8L5.4,6.8L5.4,6.8L5.4,6.8C5.4,6.8,5.4,6.8,5.4,6.8z M5.6,6.8L5.6,6.8
				L5.6,6.8C5.6,6.8,5.6,6.8,5.6,6.8L5.6,6.8L5.6,6.8C5.6,6.8,5.6,6.8,5.6,6.8L5.6,6.8C5.6,6.8,5.6,6.8,5.6,6.8
				C5.6,6.8,5.5,6.8,5.6,6.8C5.5,6.8,5.5,6.8,5.6,6.8c-0.1,0-0.1,0-0.1,0c0,0,0,0,0,0c0,0,0,0,0,0c0,0,0,0,0,0l0,0
				C5.5,6.8,5.5,6.8,5.6,6.8C5.5,6.8,5.5,6.8,5.6,6.8L5.6,6.8L5.6,6.8c0-0.1,0-0.1,0-0.1h0c0,0,0,0,0,0c0,0,0,0,0,0s0,0,0,0
				c0,0,0,0,0,0c0,0,0,0,0,0c0,0,0,0,0,0l0,0c0,0,0,0,0,0s0,0,0,0l0,0c0,0,0,0,0,0s0,0,0,0l0,0c0,0,0,0,0,0h0c0,0,0,0,0,0
				c0,0,0,0,0,0c0,0,0,0,0,0c0,0,0,0,0,0C5.6,6.7,5.6,6.7,5.6,6.8C5.6,6.7,5.6,6.8,5.6,6.8z M5.6,6.8L5.6,6.8
				C5.6,6.8,5.5,6.8,5.6,6.8C5.5,6.8,5.5,6.8,5.6,6.8C5.5,6.8,5.5,6.8,5.6,6.8C5.5,6.8,5.5,6.8,5.6,6.8L5.6,6.8
				C5.5,6.8,5.5,6.8,5.6,6.8L5.6,6.8C5.6,6.8,5.6,6.8,5.6,6.8C5.6,6.8,5.6,6.8,5.6,6.8z M5.8,6.8L5.8,6.8C5.8,6.8,5.8,6.8,5.8,6.8
				L5.8,6.8L5.8,6.8C5.8,6.8,5.8,6.8,5.8,6.8C5.8,6.8,5.8,6.8,5.8,6.8L5.8,6.8L5.8,6.8l0-0.1h0C5.7,6.7,5.7,6.8,5.8,6.8
				C5.7,6.8,5.7,6.8,5.8,6.8C5.7,6.8,5.7,6.8,5.8,6.8c-0.1,0-0.1,0-0.1,0c0,0,0,0,0,0c0,0,0,0,0,0l0,0c0,0,0,0,0,0l0,0c0,0,0,0,0,0
				c0,0,0,0,0,0c0,0,0,0,0,0h0l0,0c0,0,0,0,0,0c0,0,0,0,0,0c0,0,0,0,0,0c0,0,0,0,0,0c0,0,0,0,0,0c0,0,0,0,0,0c0,0,0,0,0,0h0h0.1
				c0,0,0,0,0,0c0,0,0,0,0,0S5.8,6.8,5.8,6.8z M6,6.8C6,6.8,6,6.8,6,6.8C6,6.8,6,6.8,6,6.8C5.9,6.8,5.9,6.8,6,6.8
				C5.9,6.8,5.9,6.8,6,6.8L6,6.8C5.9,6.8,5.9,6.8,6,6.8c-0.1,0-0.1,0-0.1,0c0,0,0,0,0,0c0,0,0,0,0,0v0V6.7v0l0,0c0,0,0,0,0,0h0
				c0,0,0,0,0,0h0l0,0L6,6.8L6,6.8C5.9,6.7,5.9,6.7,6,6.8C5.9,6.7,5.9,6.7,6,6.8C5.9,6.7,5.9,6.7,6,6.8C5.9,6.7,6,6.7,6,6.8
				C6,6.8,6,6.8,6,6.8C6,6.8,6,6.8,6,6.8z M5.9,6.8C5.9,6.8,5.9,6.8,5.9,6.8C5.9,6.8,5.9,6.8,5.9,6.8C5.9,6.8,5.9,6.8,5.9,6.8
				C5.9,6.8,5.9,6.8,5.9,6.8C5.9,6.8,5.9,6.8,5.9,6.8C5.9,6.8,5.9,6.8,5.9,6.8L5.9,6.8C5.9,6.8,5.9,6.8,5.9,6.8
				C5.9,6.8,5.9,6.8,5.9,6.8C5.9,6.8,5.9,6.8,5.9,6.8C5.9,6.8,5.9,6.8,5.9,6.8z M6.1,6.8L6.1,6.8L6.1,6.8C6.1,6.8,6.1,6.8,6.1,6.8
				C6.1,6.8,6.1,6.8,6.1,6.8L6.1,6.8L6.1,6.8C6.1,6.8,6.1,6.8,6.1,6.8L6.1,6.8L6.1,6.8L6.1,6.8L6.1,6.8L6.1,6.8L6.1,6.8H6h0h0
				c0,0,0,0,0,0l0,0l0,0V6.7v0l0,0c0,0,0,0,0,0h0h0h0l0,0v0L6.1,6.8L6.1,6.8l0-0.1v0c0,0,0,0,0,0l0,0h0c0,0,0,0,0,0c0,0,0,0,0,0l0,0
				v0V6.8z M6.3,6.8C6.3,6.8,6.3,6.8,6.3,6.8C6.3,6.8,6.3,6.8,6.3,6.8C6.3,6.8,6.3,6.8,6.3,6.8C6.3,6.8,6.3,6.8,6.3,6.8
				C6.2,6.8,6.2,6.8,6.2,6.8c0,0,0,0,0,0c0,0,0,0,0,0c0,0,0,0,0,0c0,0,0,0,0,0c0,0,0,0,0,0c0,0,0,0,0,0C6.2,6.7,6.2,6.7,6.3,6.8
				C6.3,6.7,6.3,6.7,6.3,6.8C6.3,6.7,6.3,6.7,6.3,6.8C6.3,6.7,6.3,6.7,6.3,6.8C6.3,6.7,6.3,6.8,6.3,6.8z M6.3,6.8
				C6.3,6.8,6.3,6.8,6.3,6.8C6.3,6.7,6.3,6.7,6.3,6.8C6.3,6.7,6.3,6.7,6.3,6.8L6.3,6.8C6.3,6.7,6.2,6.7,6.3,6.8
				C6.2,6.7,6.2,6.7,6.3,6.8C6.2,6.7,6.2,6.7,6.3,6.8C6.2,6.8,6.2,6.8,6.3,6.8C6.2,6.8,6.2,6.8,6.3,6.8C6.2,6.8,6.2,6.8,6.3,6.8
				C6.2,6.8,6.2,6.8,6.3,6.8C6.2,6.8,6.3,6.8,6.3,6.8L6.3,6.8C6.3,6.8,6.3,6.8,6.3,6.8C6.3,6.8,6.3,6.8,6.3,6.8
				C6.3,6.8,6.3,6.8,6.3,6.8z M6.5,6.7L6.5,6.7L6.5,6.7C6.5,6.7,6.5,6.7,6.5,6.7L6.5,6.7L6.5,6.7L6.4,6.8l0,0l0,0h0h0h0c0,0,0,0,0,0
				l0,0l0,0L6.5,6.7C6.4,6.7,6.4,6.7,6.5,6.7L6.5,6.7L6.5,6.7L6.5,6.7C6.5,6.7,6.5,6.7,6.5,6.7L6.5,6.7C6.5,6.7,6.5,6.7,6.5,6.7z
				 M6.6,6.8C6.6,6.8,6.6,6.8,6.6,6.8C6.6,6.8,6.6,6.8,6.6,6.8C6.6,6.8,6.6,6.8,6.6,6.8C6.6,6.8,6.6,6.8,6.6,6.8
				C6.5,6.8,6.5,6.8,6.5,6.8c0,0,0,0,0,0c0,0,0,0,0,0c0,0,0,0,0,0c0,0,0,0,0,0c0,0,0,0,0,0c0,0,0,0,0,0C6.5,6.7,6.6,6.7,6.6,6.8
				C6.6,6.7,6.6,6.7,6.6,6.8C6.6,6.7,6.6,6.7,6.6,6.8C6.6,6.7,6.6,6.7,6.6,6.8C6.6,6.7,6.6,6.8,6.6,6.8z M6.6,6.8
				C6.6,6.8,6.6,6.8,6.6,6.8C6.6,6.7,6.6,6.7,6.6,6.8C6.6,6.7,6.6,6.7,6.6,6.8C6.6,6.7,6.6,6.7,6.6,6.8C6.6,6.7,6.6,6.7,6.6,6.8
				C6.5,6.7,6.5,6.7,6.6,6.8C6.5,6.7,6.5,6.7,6.6,6.8C6.5,6.8,6.5,6.8,6.6,6.8C6.5,6.8,6.5,6.8,6.6,6.8C6.5,6.8,6.5,6.8,6.6,6.8
				L6.6,6.8C6.5,6.8,6.6,6.8,6.6,6.8L6.6,6.8C6.6,6.8,6.6,6.8,6.6,6.8C6.6,6.8,6.6,6.8,6.6,6.8C6.6,6.8,6.6,6.8,6.6,6.8z M7,6.8
				C7,6.8,7,6.8,7,6.8C7,6.8,7,6.8,7,6.8C7,6.8,6.9,6.8,7,6.8C6.9,6.8,6.9,6.8,7,6.8C6.9,6.8,6.9,6.8,6.9,6.8c0,0,0,0,0,0
				c0,0,0,0,0,0c0,0,0,0,0,0c0,0,0,0,0,0c0,0,0,0,0,0c0,0,0,0,0,0C6.9,6.7,6.9,6.7,7,6.8C6.9,6.7,6.9,6.7,7,6.8C6.9,6.7,7,6.7,7,6.8
				C7,6.7,7,6.7,7,6.8C7,6.7,7,6.8,7,6.8z M6.9,6.8C6.9,6.8,6.9,6.8,6.9,6.8C6.9,6.7,6.9,6.7,6.9,6.8C6.9,6.7,6.9,6.7,6.9,6.8
				L6.9,6.8C6.9,6.7,6.9,6.7,6.9,6.8C6.9,6.7,6.9,6.7,6.9,6.8C6.9,6.7,6.9,6.7,6.9,6.8C6.9,6.8,6.9,6.8,6.9,6.8
				C6.9,6.8,6.9,6.8,6.9,6.8C6.9,6.8,6.9,6.8,6.9,6.8C6.9,6.8,6.9,6.8,6.9,6.8C6.9,6.8,6.9,6.8,6.9,6.8L6.9,6.8
				C6.9,6.8,6.9,6.8,6.9,6.8C6.9,6.8,6.9,6.8,6.9,6.8C6.9,6.8,6.9,6.8,6.9,6.8z"/>
			<path class="st0" d="M7,6.9L7,6.9L7,6.9C7,6.9,7,6.9,7,6.9L7,6.9L7,6.9L7,6.9L7,6.9L7,6.9L7,6.9C7,6.8,7,6.8,7,6.9
				C7,6.8,7,6.8,7,6.9L7,6.9C7,6.8,7,6.8,7,6.9c0-0.1,0-0.1,0-0.1s0,0,0,0c0,0,0,0,0,0l0,0c0,0,0,0,0,0l0,0l0,0h0.1l0,0c0,0,0,0,0,0
				v0.1h0c0,0,0,0,0,0s0,0,0,0v0.1l0,0l0,0c0,0,0,0,0,0c0,0,0,0,0,0l0,0c0,0,0,0,0,0l0,0l0,0v0L7,6.9C7,6.8,7,6.9,7,6.9z M7.1,6.7
				L7.1,6.7C7.1,6.7,7.1,6.7,7.1,6.7C7.1,6.8,7.1,6.8,7.1,6.7C7.1,6.8,7.1,6.8,7.1,6.7C7.1,6.8,7,6.8,7.1,6.7L7.1,6.7
				C7.1,6.8,7.1,6.7,7.1,6.7z M7.3,6.8L7.3,6.8L7.3,6.8L7.3,6.8C7.3,6.8,7.3,6.8,7.3,6.8C7.3,6.8,7.3,6.8,7.3,6.8
				C7.3,6.8,7.3,6.8,7.3,6.8L7.3,6.8L7.3,6.8L7.3,6.8L7.3,6.8L7.3,6.8C7.3,6.8,7.3,6.8,7.3,6.8L7.3,6.8C7.2,6.8,7.2,6.8,7.3,6.8
				L7.3,6.8C7.2,6.8,7.2,6.8,7.3,6.8c-0.1,0-0.1,0-0.1,0l0,0c0,0,0,0,0,0c0,0,0,0,0,0c0,0,0,0,0,0l0,0h0l0,0c0,0,0,0,0,0l0,0
				c0,0,0,0,0,0C7.2,6.8,7.2,6.8,7.3,6.8C7.2,6.8,7.2,6.8,7.2,6.8c0,0,0,0,0,0c0,0,0,0,0,0c0,0,0,0,0,0c0,0,0,0,0,0c0,0,0,0,0,0h0h0
				c0,0,0,0,0,0c0,0,0,0,0,0c0,0,0,0,0,0c0,0,0,0,0,0S7.3,6.8,7.3,6.8z M7.3,6.7C7.3,6.7,7.3,6.7,7.3,6.7C7.3,6.7,7.3,6.7,7.3,6.7
				C7.3,6.7,7.3,6.7,7.3,6.7L7.3,6.7C7.2,6.7,7.2,6.7,7.3,6.7L7.3,6.7L7.3,6.7C7.2,6.7,7.2,6.7,7.3,6.7L7.3,6.7
				C7.3,6.8,7.3,6.8,7.3,6.7L7.3,6.7C7.3,6.8,7.3,6.7,7.3,6.7z M7.5,6.7L7.5,6.7C7.5,6.7,7.5,6.7,7.5,6.7C7.5,6.7,7.5,6.7,7.5,6.7
				L7.5,6.7L7.5,6.7L7.4,6.8l0,0l0,0c0,0,0,0,0,0h0h0h0l0,0l0,0L7.5,6.7C7.4,6.7,7.4,6.7,7.5,6.7L7.5,6.7L7.5,6.7L7.5,6.7
				C7.5,6.7,7.5,6.7,7.5,6.7C7.5,6.7,7.5,6.7,7.5,6.7C7.5,6.7,7.5,6.7,7.5,6.7z M7.6,6.8L7.6,6.8C7.6,6.9,7.6,6.9,7.6,6.8
				C7.6,6.9,7.5,6.9,7.6,6.8L7.6,6.8L7.6,6.8L7.6,6.8C7.5,6.9,7.5,6.9,7.6,6.8L7.6,6.8L7.6,6.8C7.5,6.8,7.5,6.8,7.6,6.8L7.5,6.7
				c0,0,0,0,0,0v0c0,0,0,0,0,0h0c0,0,0,0,0,0l0,0l0,0c0,0,0,0,0,0L7.6,6.8L7.6,6.8l0-0.1c0,0,0,0,0,0l0,0c0,0,0,0,0,0c0,0,0,0,0,0
				l0,0c0,0,0,0,0,0s0,0,0,0C7.6,6.7,7.6,6.8,7.6,6.8z"/>
		</g>
		<path class="st0" d="M2.3,6.8H1.2l0,0v0l0,0L2.3,6.8L2.3,6.8L2.3,6.8L2.3,6.8z"/>
		<path class="st0" d="M2.6,6.8C2.6,6.8,2.6,6.8,2.6,6.8C2.6,6.8,2.6,6.8,2.6,6.8C2.6,6.8,2.6,6.8,2.6,6.8L2.6,6.8L2.6,6.8L2.6,6.8
			L2.6,6.8C2.6,6.8,2.6,6.8,2.6,6.8C2.6,6.7,2.6,6.7,2.6,6.8c0-0.1,0-0.1,0-0.1c0,0,0,0,0,0l0,0v0L2.6,6.8C2.5,6.7,2.5,6.7,2.6,6.8
			C2.5,6.8,2.5,6.8,2.6,6.8L2.6,6.8C2.5,6.8,2.5,6.8,2.6,6.8L2.6,6.8L2.6,6.8c-0.1,0-0.1,0-0.1,0c0,0,0,0,0,0l0,0h0c0,0,0,0,0,0
			l0-0.1c0,0,0,0,0,0c0,0,0,0,0,0v0l0,0l0,0c0,0,0,0,0,0c0,0,0,0,0,0c0,0,0,0,0,0c0,0,0,0,0,0l0,0.1c0,0,0,0,0,0l0,0h0c0,0,0,0,0,0
			h0l0,0h0c0,0,0,0,0,0l0-0.1c0,0,0,0,0,0c0,0,0,0,0,0h0c0,0,0,0,0,0c0,0,0,0,0,0l0,0c0,0,0,0,0,0l0,0c0,0,0,0,0,0c0,0,0,0,0,0
			c0,0,0,0,0,0c0,0,0,0,0,0l0,0C2.5,6.8,2.5,6.8,2.6,6.8C2.5,6.8,2.5,6.8,2.6,6.8C2.5,6.8,2.5,6.8,2.6,6.8C2.5,6.8,2.5,6.8,2.6,6.8
			L2.5,6.7c0,0,0,0,0,0c0,0,0,0,0,0c0,0,0,0,0,0c0,0,0,0,0,0h0c0,0,0,0,0,0c0,0,0,0,0,0C2.6,6.7,2.6,6.8,2.6,6.8z M2.8,6.8L2.8,6.8
			L2.8,6.8C2.8,6.8,2.8,6.8,2.8,6.8C2.7,6.8,2.7,6.8,2.8,6.8L2.8,6.8L2.8,6.8L2.8,6.8C2.7,6.8,2.7,6.8,2.8,6.8
			C2.7,6.8,2.7,6.8,2.8,6.8C2.7,6.8,2.7,6.8,2.8,6.8c-0.1,0-0.1,0-0.1,0l0,0c0,0,0,0,0,0c0,0,0,0,0,0c0,0,0,0,0,0
			C2.7,6.8,2.7,6.8,2.8,6.8C2.7,6.8,2.7,6.8,2.8,6.8L2.8,6.8L2.8,6.8c0-0.1,0-0.1,0-0.1c0,0,0,0,0,0c0,0,0,0,0,0c0,0,0,0,0,0
			c0,0,0,0,0,0c0,0,0,0,0,0h0h0l0,0l0,0c0,0,0,0,0,0l0,0c0,0,0,0,0,0c0,0,0,0,0,0c0,0,0,0,0,0c0,0,0,0,0,0c0,0,0,0,0,0c0,0,0,0,0,0
			s0,0,0,0c0,0,0,0,0,0c0,0,0,0,0,0C2.8,6.7,2.8,6.7,2.8,6.8C2.8,6.7,2.8,6.8,2.8,6.8z M2.7,6.8L2.7,6.8L2.7,6.8
			C2.7,6.8,2.7,6.8,2.7,6.8C2.7,6.8,2.7,6.8,2.7,6.8C2.7,6.8,2.7,6.8,2.7,6.8L2.7,6.8C2.7,6.8,2.7,6.8,2.7,6.8
			C2.7,6.8,2.7,6.8,2.7,6.8L2.7,6.8C2.7,6.8,2.7,6.8,2.7,6.8z M2.9,6.7L2.9,6.7L2.9,6.7C2.9,6.7,2.9,6.7,2.9,6.7
			C2.9,6.7,2.9,6.7,2.9,6.7L2.9,6.7l0,0.1c0,0,0,0,0,0l0,0l0,0c0,0,0,0,0,0c0,0,0,0,0,0l0,0c0,0,0,0,0,0l0,0L2.9,6.7
			C2.8,6.7,2.8,6.7,2.9,6.7C2.8,6.7,2.8,6.7,2.9,6.7L2.9,6.7C2.9,6.7,2.9,6.7,2.9,6.7C2.9,6.7,2.9,6.7,2.9,6.7L2.9,6.7
			C2.9,6.7,2.9,6.7,2.9,6.7z M3.1,6.8L3.1,6.8C3.1,6.8,3.1,6.8,3.1,6.8C3,6.8,3,6.8,3.1,6.8L3.1,6.8L3.1,6.8L3.1,6.8L3.1,6.8
			C3,6.8,3,6.8,3.1,6.8C3,6.8,3,6.8,3.1,6.8C3,6.8,3,6.8,3.1,6.8c-0.1,0-0.1,0-0.1,0c0,0,0,0,0,0c0,0,0,0,0,0c0,0,0,0,0,0l0,0
			C2.9,6.8,3,6.8,3.1,6.8C3,6.8,3,6.8,3.1,6.8L3.1,6.8L3.1,6.8c0-0.1,0-0.1,0-0.1c0,0,0,0,0,0c0,0,0,0,0,0c0,0,0,0,0,0c0,0,0,0,0,0
			c0,0,0,0,0,0c0,0,0,0,0,0c0,0,0,0,0,0l0,0h0c0,0,0,0,0,0l0,0c0,0,0,0,0,0s0,0,0,0l0,0c0,0,0,0,0,0c0,0,0,0,0,0h0c0,0,0,0,0,0
			c0,0,0,0,0,0c0,0,0,0,0,0C3.1,6.7,3.1,6.7,3.1,6.8C3.1,6.7,3.1,6.8,3.1,6.8z M3,6.8L3,6.8L3,6.8C3,6.8,3,6.8,3,6.8
			C3,6.8,3,6.8,3,6.8C3,6.8,3,6.8,3,6.8L3,6.8C3,6.8,3,6.8,3,6.8L3,6.8C3,6.8,3,6.8,3,6.8C3,6.8,3,6.8,3,6.8z M3.2,6.8
			C3.2,6.8,3.2,6.8,3.2,6.8L3.2,6.8C3.2,6.8,3.2,6.8,3.2,6.8C3.2,6.8,3.1,6.8,3.2,6.8L3.2,6.8c-0.1,0-0.1,0-0.1,0h0v0c0,0,0,0,0,0
			l0,0c0,0,0,0,0,0s0,0,0,0l0,0c0,0,0,0,0,0l0,0c0,0,0,0,0,0l0,0l0,0L3.2,6.8C3.1,6.8,3.1,6.8,3.2,6.8C3.1,6.8,3.1,6.8,3.2,6.8
			C3.2,6.8,3.2,6.8,3.2,6.8C3.2,6.8,3.2,6.8,3.2,6.8C3.2,6.8,3.2,6.8,3.2,6.8C3.2,6.8,3.2,6.8,3.2,6.8C3.2,6.8,3.2,6.8,3.2,6.8
			C3.2,6.8,3.2,6.8,3.2,6.8C3.1,6.8,3.1,6.8,3.2,6.8L3.2,6.8c-0.1,0-0.1,0-0.1,0l0,0l0,0c0,0,0,0,0,0v0l0,0l0,0
			C3.1,6.8,3.1,6.8,3.2,6.8L3.2,6.8C3.1,6.8,3.1,6.8,3.2,6.8L3.2,6.8C3.2,6.7,3.2,6.7,3.2,6.8L3.2,6.8C3.2,6.7,3.2,6.7,3.2,6.8
			C3.2,6.7,3.2,6.7,3.2,6.8C3.2,6.7,3.2,6.7,3.2,6.8C3.1,6.7,3.1,6.7,3.2,6.8L3.2,6.8C3.1,6.7,3.1,6.7,3.1,6.7c0,0,0,0,0,0l0,0l0,0
			h0c0,0,0,0,0,0l0,0c0,0,0,0,0,0c0,0,0,0,0,0l0,0c0,0,0,0,0,0h0c0,0,0,0,0,0c0,0,0,0,0,0C3.2,6.7,3.2,6.7,3.2,6.8
			C3.2,6.7,3.2,6.7,3.2,6.8C3.2,6.7,3.2,6.7,3.2,6.8L3.2,6.8C3.2,6.7,3.2,6.7,3.2,6.8C3.2,6.8,3.2,6.8,3.2,6.8
			C3.2,6.8,3.2,6.8,3.2,6.8L3.2,6.8C3.2,6.8,3.2,6.8,3.2,6.8C3.2,6.8,3.2,6.8,3.2,6.8L3.2,6.8C3.2,6.8,3.2,6.8,3.2,6.8z M3.4,6.8
			C3.4,6.8,3.4,6.8,3.4,6.8L3.4,6.8L3.4,6.8C3.4,6.8,3.4,6.8,3.4,6.8C3.4,6.8,3.4,6.8,3.4,6.8C3.4,6.8,3.4,6.8,3.4,6.8
			C3.4,6.8,3.4,6.8,3.4,6.8L3.4,6.8L3.4,6.8C3.3,6.8,3.3,6.8,3.4,6.8C3.3,6.8,3.3,6.8,3.4,6.8C3.3,6.8,3.3,6.8,3.4,6.8
			C3.3,6.8,3.3,6.8,3.4,6.8H3.3c0,0,0,0,0,0l0,0l0,0c0,0,0,0,0,0c0,0,0,0,0,0h0l0,0l0,0V6.7v0l0,0h0c0,0,0,0,0,0c0,0,0,0,0,0
			c0,0,0,0,0,0v0.1c0,0,0,0,0,0v0C3.3,6.8,3.3,6.8,3.4,6.8C3.3,6.8,3.3,6.8,3.4,6.8l0-0.1v0l0,0h0c0,0,0,0,0,0c0,0,0,0,0,0l0,0l0,0
			c0,0,0,0,0,0V6.8z M3.6,6.8L3.6,6.8L3.6,6.8L3.6,6.8L3.6,6.8L3.6,6.8C3.5,6.8,3.5,6.8,3.6,6.8L3.6,6.8L3.6,6.8L3.6,6.8L3.6,6.8
			L3.6,6.8L3.6,6.8L3.6,6.8c-0.1,0-0.1,0-0.1,0h0c0,0,0,0,0,0h0l0,0l0,0V6.7v0l0,0h0c0,0,0,0,0,0h0c0,0,0,0,0,0l0,0v0L3.6,6.8
			L3.6,6.8l0-0.1v0l0,0c0,0,0,0,0,0h0h0h0l0,0v0V6.8z"/>
		<path class="st0" d="M8.8,6.8H7.7c0,0,0,0,0,0v0c0,0,0,0,0,0L8.8,6.8L8.8,6.8L8.8,6.8L8.8,6.8z"/>
		<g>
			<path class="st1" d="M4.8,5.9C4.7,5.9,4.7,6,4.6,6c0,0-0.1,0-0.1,0c0,0-0.1,0-0.1,0c0,0,0,0,0,0c0,0,0,0,0,0l0.2-0.7c0,0,0,0,0,0
				c0,0,0,0,0,0c0,0,0,0-0.1,0c0,0,0,0-0.1,0c0,0,0,0,0,0.1L4.3,6c0,0,0,0-0.1,0c0,0,0,0-0.1,0c0,0,0,0,0,0c0,0,0,0,0,0
				c0,0,0,0,0-0.1l0.1-0.5c0,0,0,0,0-0.1c0,0,0,0,0,0c0,0,0,0-0.1,0c0,0,0,0-0.1,0c0,0,0,0-0.1,0c0,0,0,0-0.1,0c0,0,0,0,0,0
				c0,0,0,0,0,0c0,0,0,0,0,0c0,0,0,0,0,0c0,0,0,0,0,0c0,0,0,0,0,0c0,0,0,0,0,0L3.8,5.9c0,0,0,0,0,0s0,0,0,0c0,0,0,0-0.1,0.1
				c0,0-0.1,0-0.1,0c0,0-0.1,0-0.1,0c0,0,0,0-0.1,0s0,0,0,0c0,0,0,0,0-0.1c0,0,0,0,0,0c0,0,0,0,0,0c0.1-0.1,0.1-0.2,0.2-0.3
				c0-0.1,0.1-0.2,0.1-0.2c0-0.1,0-0.1,0.1-0.2c0,0,0-0.1,0-0.1c0,0,0-0.1,0-0.1c0,0,0,0,0,0c0,0,0,0-0.1,0c-0.1,0-0.1,0-0.2,0.1
				c0,0-0.1,0.1-0.1,0.2c0,0.1-0.1,0.2-0.1,0.3c0,0.1,0,0.2-0.1,0.4c0,0,0,0-0.1,0.1c0,0-0.1,0-0.1,0.1c0,0-0.1,0-0.1,0
				c0,0-0.1,0-0.1,0c0,0,0,0-0.1,0c0,0,0,0-0.1,0c0,0,0,0,0-0.1c0.1,0,0.2-0.1,0.2-0.1C2.9,5.8,3,5.7,3,5.7c0,0,0.1-0.1,0.1-0.1
				c0,0,0-0.1,0-0.1c0,0,0,0,0-0.1c0,0,0,0,0-0.1c0,0,0,0-0.1,0c0,0-0.1,0-0.1,0s-0.1,0-0.1,0c0,0-0.1,0-0.1,0.1
				c0,0-0.1,0.1-0.1,0.1c0,0,0,0.1-0.1,0.1c0,0,0,0.1,0,0.1c0,0,0,0.1,0,0.1c0,0,0,0,0,0c0,0-0.1,0-0.1,0.1c0,0-0.1,0-0.1,0
				c0,0-0.1,0-0.1,0c0,0,0,0-0.1,0c0,0,0,0-0.1,0c0,0,0,0,0-0.1C2,5.9,2,5.8,2.1,5.8c0.1,0,0.1-0.1,0.1-0.1c0,0,0-0.1,0.1-0.1
				c0,0,0-0.1,0-0.1c0,0,0,0,0-0.1c0,0,0,0,0-0.1c0,0,0,0-0.1,0c0,0-0.1,0-0.1,0c0,0-0.1,0-0.1,0c0,0-0.1,0-0.1,0.1
				c0,0-0.1,0.1-0.1,0.1c0,0,0,0.1-0.1,0.1c0,0,0,0.1,0,0.1c0,0,0,0.1,0,0.1c0,0,0,0.1,0,0.1c0,0,0,0.1,0.1,0.1c0,0,0.1,0,0.1,0.1
				c0,0,0.1,0,0.1,0c0,0,0.1,0,0.1,0c0,0,0.1,0,0.1-0.1c0,0,0.1,0,0.1-0.1c0,0,0,0,0-0.1c0,0,0,0,0,0c0,0,0,0.1,0.1,0.1
				c0,0,0.1,0,0.1,0.1c0,0,0.1,0,0.1,0c0,0,0.1,0,0.1,0c0,0,0.1,0,0.1-0.1c0,0,0.1,0,0.1-0.1c0,0,0,0,0,0c0,0,0,0,0,0.1
				c0,0,0,0.1,0,0.1c0,0,0,0,0.1,0c0,0,0,0,0.1,0c0,0,0.1,0,0.1,0c0,0,0.1,0,0.1,0c0,0,0.1,0,0.1-0.1c0,0,0,0,0.1-0.1c0,0,0,0,0,0.1
				c0,0,0,0.1,0.1,0.1c0,0,0.1,0,0.1,0c0,0,0.1,0,0.1,0c0,0,0.1,0,0.1,0c0,0,0.1,0,0.1-0.1c0,0,0,0,0,0.1c0,0,0,0,0,0.1
				C4.1,6.3,4.1,6.3,4,6.3c-0.1,0-0.1,0.1-0.2,0.1c0,0-0.1,0.1-0.1,0.1c0,0,0,0.1,0,0.2c0,0,0,0.1,0,0.1c0,0,0,0.1,0.1,0.1
				c0,0,0,0,0.1,0c0,0,0,0,0.1,0c0.1,0,0.1,0,0.2,0c0,0,0.1-0.1,0.1-0.1s0.1-0.1,0.1-0.2c0-0.1,0.1-0.1,0.1-0.2c0-0.1,0-0.1,0.1-0.2
				c0,0,0.1,0,0.1,0c0,0,0.1,0,0.1,0c0,0,0,0,0,0c0,0,0,0,0,0.1c0,0,0,0,0.1,0c0,0,0.1,0,0.1,0c0,0,0,0,0.1,0c0,0,0.1,0,0.1,0
				s0.1,0,0.1,0c0,0,0,0,0.1,0c0,0,0,0,0.1,0c0,0,0.1,0,0.1,0c0.1,0,0.1,0,0.2,0c0.1,0,0.1-0.1,0.2-0.1c0,0,0.1-0.1,0.1-0.1
				c0-0.1,0.1-0.1,0.1-0.2c0-0.1,0-0.1,0.1-0.2c0-0.1,0-0.1,0-0.2c0-0.1,0-0.1,0-0.2c0,0,0-0.1-0.1-0.1c0,0-0.1-0.1-0.1-0.1
				c0,0-0.1-0.1-0.2-0.1c-0.1,0-0.1,0-0.2,0c-0.1,0-0.2,0-0.3,0C5,4.8,5,4.9,4.9,4.9c0,0-0.1,0.1-0.1,0.1c0,0,0,0.1,0,0.1
				s0,0.1,0,0.1c0,0,0,0,0,0.1c0,0,0,0,0.1,0c0,0,0,0,0,0s0,0,0,0c0,0,0,0,0,0c0,0,0,0,0-0.1c0,0,0-0.1,0-0.1C5,5,5,5,5.1,5
				c0,0,0.1,0,0.1-0.1c0.1,0,0.1,0,0.2,0c0.1,0,0.1,0,0.2,0c0,0,0.1,0,0.1,0.1c0,0,0,0.1,0.1,0.1c0,0.1,0,0.1,0,0.2
				c0,0.1,0,0.1,0,0.2s0,0.1,0,0.2c0,0.1,0,0.1-0.1,0.2c0,0,0,0.1-0.1,0.1c0,0-0.1,0.1-0.1,0.1c0,0-0.1,0-0.1,0c0,0,0,0-0.1,0
				c0,0,0,0-0.1,0C5.2,6,5.2,6,5.2,6c0-0.1,0-0.1,0.1-0.2L5.4,5c0,0,0,0,0,0c0,0,0,0,0,0c0,0,0,0-0.1,0c0,0,0,0-0.1,0c0,0,0,0,0,0.1
				L5,5.8C5,5.9,5,5.9,5,6C4.9,6,4.9,6,4.8,5.9C4.9,5.9,4.8,5.9,4.8,5.9z M2.1,5.4C2.1,5.4,2.2,5.4,2.1,5.4C2.2,5.5,2.2,5.5,2.1,5.4
				c0.1,0.1,0,0.1,0,0.2c0,0-0.1,0.1-0.1,0.1c0,0-0.1,0.1-0.2,0.1c0,0,0,0,0-0.1c0,0,0-0.1,0-0.1c0,0,0-0.1,0-0.1s0-0.1,0-0.1
				C2,5.5,2,5.5,2.1,5.4C2.1,5.4,2.1,5.4,2.1,5.4z M2.9,5.4C2.9,5.4,2.9,5.4,2.9,5.4C3,5.5,3,5.5,2.9,5.4c0,0.1,0,0.1,0,0.2
				c0,0-0.1,0.1-0.1,0.1c0,0-0.1,0.1-0.2,0.1c0,0,0,0,0-0.1c0,0,0-0.1,0-0.1c0,0,0-0.1,0-0.1c0,0,0-0.1,0-0.1
				C2.8,5.5,2.8,5.5,2.9,5.4C2.9,5.4,2.9,5.4,2.9,5.4z M3.7,5C3.7,5,3.7,5,3.7,5C3.7,5,3.7,5,3.7,5c0,0,0,0.1,0,0.1c0,0,0,0.1,0,0.1
				c0,0,0,0.1-0.1,0.2S3.5,5.6,3.5,5.7c0-0.1,0-0.2,0-0.3c0-0.1,0-0.1,0-0.2C3.6,5.1,3.6,5.1,3.7,5C3.7,5,3.7,5,3.7,5z M3.9,6.8
				C3.9,6.8,3.8,6.8,3.9,6.8C3.8,6.8,3.8,6.8,3.9,6.8C3.8,6.7,3.8,6.7,3.9,6.8c-0.1-0.1-0.1-0.2,0-0.2S3.9,6.5,4,6.5
				c0.1,0,0.1-0.1,0.2-0.1c0,0.1-0.1,0.2-0.1,0.2C4,6.7,4,6.7,4,6.7C3.9,6.8,3.9,6.8,3.9,6.8z M4.8,6.1C4.8,6.1,4.8,6.1,4.8,6.1
				C4.7,6.1,4.7,6.1,4.8,6.1C4.7,6,4.7,6,4.8,6.1C4.8,6,4.8,6,4.8,6.1C4.8,6,4.8,6,4.8,6.1C4.8,6,4.9,6,4.8,6.1C4.9,6,4.9,6,4.9,6
				C4.9,6.1,4.9,6.1,4.8,6.1C4.8,6.1,4.8,6.1,4.8,6.1z"/>
			<g>
				<path class="st1" d="M0.4,5.2c0,0,0-0.1,0-0.1c0,0,0-0.1,0.1-0.1c0,0,0,0,0.1-0.1c0,0,0.1,0,0.1,0L0.3,6.2c0,0,0,0,0,0
					c0,0,0,0,0.1,0c0,0,0,0,0.1,0c0,0,0,0,0.1,0c0,0,0,0,0-0.1l0.1-0.6c0,0,0,0,0,0c0,0,0,0,0,0c0,0,0,0,0.1,0c0,0,0,0,0.1,0
					c0,0,0,0,0,0c0,0,0,0,0,0c0,0,0,0,0,0c0,0,0,0-0.1,0c0,0-0.1,0-0.1,0c0,0-0.1,0-0.1,0L0.8,5c0,0,0.1,0,0.1,0C1,5,1,5,1,5
					s0.1,0,0.1,0c0,0,0.1,0,0.1,0c0,0,0,0,0.1-0.1c0,0,0-0.1,0-0.1c0,0,0-0.1,0-0.1c0,0-0.1,0-0.1,0c0,0-0.1,0-0.1,0
					c0,0-0.1,0-0.1,0c0,0-0.1,0-0.1,0c0,0-0.1,0-0.1,0c0,0-0.1,0-0.1,0c0,0-0.1,0-0.1,0c0,0-0.1,0-0.1,0c0,0-0.1,0-0.1,0.1
					c0,0,0,0.1-0.1,0.1c0,0,0,0.1,0,0.1c0,0,0,0.1,0,0.1c0,0,0,0,0,0.1c0,0,0,0,0.1,0c0,0,0,0,0,0c0,0,0,0,0,0
					C0.4,5.3,0.4,5.3,0.4,5.2C0.4,5.3,0.4,5.3,0.4,5.2C0.4,5.2,0.4,5.2,0.4,5.2z"/>
				<path class="st1" d="M1.3,5.4C1.3,5.3,1.3,5.3,1.3,5.4C1.3,5.3,1.3,5.3,1.3,5.4C1.2,5.3,1.2,5.3,1.2,5.3c0,0,0,0-0.1,0
					s0,0-0.1,0c0,0,0,0,0,0c0,0,0,0,0,0c0,0,0,0,0,0c0,0,0,0,0,0h0c0,0,0,0,0,0s0,0,0,0L0.9,6.2c0,0,0,0,0,0c0,0,0,0,0,0s0,0,0.1,0
					c0,0,0,0,0.1,0c0,0,0,0,0-0.1l0-0.1c0-0.1,0-0.2,0-0.2c0-0.1,0-0.1,0.1-0.1c0,0,0-0.1,0-0.1c0,0,0,0,0,0c0,0,0,0,0,0
					c0,0,0,0,0,0c0,0,0,0,0,0c0,0,0,0,0,0c0,0,0,0,0,0c0,0,0,0,0,0c0,0,0,0,0,0c0,0,0,0,0.1,0c0,0,0,0,0,0c0,0,0,0,0-0.1
					c0,0,0,0,0-0.1c0,0,0-0.1,0-0.1c0,0,0,0,0,0c0,0,0,0-0.1,0s-0.1,0-0.1,0C1.5,5.3,1.4,5.3,1.3,5.4C1.4,5.4,1.3,5.4,1.3,5.4
					C1.3,5.5,1.3,5.4,1.3,5.4z"/>
				<path class="st1" d="M9.3,5.5C9.3,5.4,9.3,5.4,9.3,5.5c0-0.1,0-0.1,0-0.1c0,0,0,0-0.1,0c0,0-0.1,0-0.1,0c0,0-0.1,0-0.1,0
					c0,0-0.1,0-0.1,0.1c0,0-0.1,0.1-0.1,0.1c0,0,0,0.1-0.1,0.1c0,0,0,0.1,0,0.1c0,0,0,0.1,0,0.1c0,0,0,0-0.1,0c0,0-0.1,0-0.1,0.1
					c0,0-0.1,0-0.1,0c0,0-0.1,0-0.1,0c0,0-0.1,0-0.1,0c0,0,0,0-0.1-0.1c0,0,0-0.1,0-0.1c0-0.1,0-0.1,0-0.2c0-0.1,0-0.1,0-0.1
					c0,0,0-0.1,0.1-0.1c0,0,0.1,0,0.1,0c0,0,0,0,0.1,0c0,0,0,0,0,0c0,0,0,0,0,0c0,0,0,0,0,0c0,0,0,0,0,0c0,0,0,0,0,0s0,0,0,0
					c0,0,0,0,0.1,0s0,0,0,0c0,0,0,0,0-0.1c0-0.1,0-0.1-0.1-0.1c0,0-0.1,0-0.2,0c0,0-0.1,0-0.1,0c0,0-0.1,0-0.1,0.1
					c0,0-0.1,0.1-0.1,0.1S7.9,5.6,7.9,5.6s0,0.1,0,0.1c0,0,0,0.1,0,0.1c0,0,0,0,0,0.1c0,0,0,0,0,0c0,0,0,0-0.1,0c0,0,0,0-0.1,0
					c0,0,0,0,0,0c0,0,0,0,0-0.1l0.1-0.4c0,0,0-0.1,0-0.1c0,0,0-0.1,0-0.1c0,0,0,0,0,0c0,0,0,0-0.1,0c0,0-0.1,0-0.1,0
					c0,0-0.1,0-0.1,0.1c0,0-0.1,0.1-0.1,0.1l0-0.1c0,0,0,0,0-0.1c0,0,0,0,0,0c0,0,0,0,0,0c0,0,0,0-0.1,0c0,0,0,0-0.1,0
					c0,0,0,0-0.1,0c0,0,0,0,0,0c0,0,0,0,0,0c0,0,0,0,0,0c0,0,0,0,0,0h0c0,0,0,0,0,0c0,0,0,0,0,0L7,6c0,0,0,0,0,0c0,0,0,0-0.1,0
					c0,0,0,0-0.1,0c0,0,0,0,0,0c0,0,0,0,0,0c0,0,0,0,0-0.1l0.1-0.6c0,0,0,0,0,0c0,0,0,0,0,0c0,0,0,0-0.1,0c0,0,0,0-0.1,0
					c0,0,0,0-0.1,0s-0.1,0-0.1,0l0,0c-0.1,0-0.1,0-0.1,0c0,0-0.1,0-0.1,0.1c0,0-0.1,0.1-0.1,0.1C6,5.6,6,5.7,6,5.7
					c0,0.1,0,0.1,0,0.2c0,0,0,0,0,0.1c0,0,0,0,0,0.1c0,0,0,0,0,0.1c0,0,0,0,0.1,0c0,0,0.1,0,0.1,0c0,0,0.1,0,0.1,0
					c0,0,0.1,0,0.1-0.1c0,0,0.1-0.1,0.1-0.1c0,0,0,0.1,0,0.1c0,0,0,0,0,0c0,0,0,0,0,0c0,0,0,0,0.1,0c0,0,0.1,0,0.1,0
					c0,0,0.1,0,0.1-0.1c0,0,0,0,0,0l0,0.1c0,0,0,0,0,0c0,0,0,0,0,0c0,0,0,0,0.1,0c0,0,0,0,0.1,0c0,0,0,0,0-0.1l0.1-0.5c0,0,0,0,0,0
					c0,0,0,0,0.1,0c0,0,0,0,0.1,0c0,0,0,0,0,0c0,0,0,0,0,0c0,0,0,0,0,0.1L7.4,6c0,0,0,0.1,0,0.1c0,0,0,0.1,0,0.1c0,0,0,0,0.1,0
					c0,0,0,0,0.1,0c0,0,0.1,0,0.1,0c0,0,0.1,0,0.1-0.1c0,0,0.1,0,0.1-0.1c0,0,0,0.1,0.1,0.1c0,0,0.1,0,0.1,0.1c0,0,0.1,0,0.1,0
					c0,0,0.1,0,0.1,0c0,0,0.1,0,0.1-0.1c0,0,0.1,0,0.1-0.1c0,0,0,0,0.1-0.1c0,0,0,0,0,0c0,0,0,0.1,0.1,0.1c0,0,0.1,0,0.1,0.1
					c0,0,0.1,0,0.1,0c0,0,0.1,0,0.1,0c0,0,0.1,0,0.1-0.1c0,0,0.1,0,0.1-0.1c0,0,0.1-0.1,0.1-0.1c0,0,0,0,0,0c0,0,0,0,0,0s0,0,0,0
					c0,0,0,0-0.1,0.1c0,0-0.1,0-0.1,0.1c0,0-0.1,0-0.1,0c0,0-0.1,0-0.1,0c0,0-0.1,0-0.1,0c0,0,0,0-0.1,0c0,0,0,0,0-0.1
					c0.1,0,0.2-0.1,0.2-0.1c0.1,0,0.1-0.1,0.1-0.1c0,0,0-0.1,0.1-0.1C9.3,5.5,9.3,5.5,9.3,5.5z M6.5,5.9C6.5,5.9,6.5,6,6.5,5.9
					C6.4,6,6.4,6,6.4,6c0,0,0,0-0.1,0c0,0,0,0-0.1,0c0,0,0,0,0,0c0,0,0,0,0-0.1s0-0.1,0-0.1c0,0,0-0.1,0-0.1c0,0,0-0.1,0.1-0.1
					c0,0,0-0.1,0.1-0.1c0,0,0.1,0,0.1,0c0,0,0,0,0,0c0,0,0,0,0,0C6.6,5.4,6.5,5.9,6.5,5.9z M9.1,5.4C9.2,5.4,9.2,5.4,9.1,5.4
					C9.2,5.5,9.2,5.5,9.1,5.4c0.1,0.1,0,0.1,0,0.2c0,0-0.1,0.1-0.1,0.1c0,0-0.1,0.1-0.2,0.1c0,0,0,0,0-0.1c0,0,0-0.1,0-0.1
					c0,0,0-0.1,0-0.1c0,0,0-0.1,0-0.1C9,5.5,9,5.5,9.1,5.4C9.1,5.4,9.1,5.4,9.1,5.4z"/>
			</g>
		</g>
	</g>
</g>
</svg>
