<?xml version="1.0" encoding="utf-8"?>
<!-- Generator: Adobe Illustrator 22.0.1, SVG Export Plug-In . SVG Version: 6.00 Build 0)  -->
<svg version="1.1" id="Слой_1" xmlns="http://www.w3.org/2000/svg" xmlns:xlink="http://www.w3.org/1999/xlink" x="0px" y="0px"
	 viewBox="0 0 332.6 450.6" style="enable-background:new 0 0 332.6 450.6;" xml:space="preserve">
<style type="text/css">
	.st0{fill:#1C1C1A;}
	.st1{fill:#FC0000;}
</style>
<g id="Слой_x0020_1">
	<g id="_2169367370288">
		<path class="st0" d="M329.7,139.5c0.3-0.4,0.1-0.9-0.3-1.2c-2.2-1.6-7.6-0.3-10.2-0.1c-0.9,0.1-10.5,1.4-10.8,0.7
			c-0.1-0.2-0.3-0.1-0.3,0.1c-3.9-1-8.1-0.7-12,0.1c-6.9,1.3-12.8,4.9-19,7.8c-7.5,3.5-15.6,5.4-23.6,6.8c-10.4,1.8-21.7,2.7-32,5.6
			c0,0,0,0,0,0c0,0-0.1,0-0.1,0c-4.3,1.3-8.5,2.9-12.3,5.1c-0.2,0.1-0.1,0.4,0.2,0.3c0.7-0.2,1.5-0.5,2.2-0.7
			c-0.6,0.3-1.3,0.7-1.9,1c-4.1,2-10.1,5-14.7,2.8c1.5-1.9,3.4-3.3,5.5-4.4c1.9-0.2,3.8-0.8,5.6-1.9c0.6-0.4,0.4-1.5-0.4-1.4
			c-2.2,0.2-4.4,0.9-6.5,1.9c-3.7,0.1-7.7-0.9-11-1.5c-5.5-1-10.7-0.9-16.3-0.2c-6.5,0.8-12.8,2.5-18.9,4.5c-2.5-3.2-5-6.3-7-9.8
			c-2.7-4.6-4.7-9.5-6.4-14.5c-3-8.8-4.9-18.1-6.8-27.3c-0.1-0.3-0.6-0.3-0.6,0.1c0.2,9.8,2.4,19.5,5.8,28.7
			c2.9,7.9,7.1,17.4,13.7,23.2c-5.3,1.8-10.6,4-15.7,6.1c-0.3,0.1-0.2,0.7,0.1,0.5c5.7-1.9,11.3-3.9,17-5.7c0.1,0,0.2,0,0.3-0.1
			c7.3-2.3,14.7-4.1,22.4-4.8c6-0.5,11.5,0.6,17.3,1.6c1.3,0.2,2.5,0.4,3.8,0.4c-1.6,1.2-3,2.5-4,4.1c-0.3,0.4-0.1,1,0.3,1.2
			c4.2,2.8,9.5,1,13.8-0.7c5.1-2,9.9-4.8,14.8-7.1c7.8-2,15.7-3.6,23.8-4.8c12.3-1.9,24.7-4.3,35.9-10c5.9-3,11.9-5.7,18.6-6.4
			c3.4-0.4,6.8-0.1,10.1,0.8c2,0.6,3.8,1.8,4.6,3.7c0.8,2.1-1.2,4.6-2.5,5.9c-3.3,3-8.9,3.7-13.1,4.3c-4.2,0.7-8.3,1.1-12.6,1.1
			c-0.5,0-1,0-1.6,0c-0.2-0.1-0.4-0.1-0.6,0c-0.2,0-0.4,0-0.6,0c-0.5,0-0.7,0.5-0.6,0.9c-5.1,3.8-9.9,7.7-15.4,11.1
			c-6.5,3.9-13.4,7.1-20.5,9.8c-6.8,2.5-13.8,4.3-20.9,5.8c-8,1.6-16.1,0.8-24.1,2.2c-14.9,2.4-27.9,11-41.7,16.6
			c-7,2.8-14.2,5.1-21.5,6.7c-7.9,1.7-15.6,1.6-23.6,1.7c-0.5,0-0.7,0.9-0.1,1c14.4,2.3,29.9-1.9,43.3-6.9
			c15.1-5.6,29.1-15.4,45.3-17.5c7.7-1,15.3-0.5,23-2c7.5-1.4,14.9-3.5,22.1-6.2c12.7-4.7,26.8-11.4,36.1-21.6
			c15.5,0.3,33.2,1.7,46.8-7.1c0.3-0.2,0.4-0.4,0.4-0.7C333.3,146.3,331.9,142.1,329.7,139.5L329.7,139.5z M312.8,151L312.8,151
			c3-2.4,4.4-7.1,0.8-9.6c-0.5-0.4-1-0.7-1.5-0.9c1.7,0.1,3.5-0.1,4.2-0.1c2.8,0,5.5-0.2,8.2-0.2c1.3,0,2.8,0.2,4.1-0.1
			c0.7,1.4,1.2,2.8,1.6,4.4c0.3,1.5,0.2,2.9,0.3,4.4c-9.7,5.2-20.1,6.5-30.6,6.9C304.2,154.9,309.1,153.9,312.8,151L312.8,151z"/>
		<path class="st0" d="M96.7,318.5c-0.3-6-2.4-12-4.3-17.7c-2-5.8-4.3-11.5-6.8-17.2c-5.3-12.2-11-24.2-15.2-36.8
			c-4.2-12.5-6-25.7-6.8-38.8c-0.8-13.8,0.3-28.2,5.7-41.1c0.1-0.3-0.3-0.5-0.4-0.2c-5.7,11.4-7.5,23.8-7.4,36.4
			c0.2,13.2,2,26.9,5.5,39.6c3.5,12.6,9.1,24.5,14.3,36.4c2.9,6.6,5.8,13.2,8.3,20c2.4,6.4,3.7,13.1,5.8,19.6
			C95.6,319.4,96.7,319.3,96.7,318.5L96.7,318.5z"/>
		<path class="st0" d="M117.8,406c0.7-4.7,1.1-9.3-1.6-13.5c0.1-0.1,0.1-0.3,0.1-0.5c-0.7-3.4-4.1-5.3-7.3-5.2
			c2.8-9.7,3.9-20.1,5.5-30.1c1.5-9.3,3.2-18.7,4.1-28.1c1.3-14,0-28.9-7-41.2c0-10.5-0.2-21.1-2-31.4c-2.7-15.8-8.6-31.2-14.3-46.2
			c-0.1-0.3-0.5-0.2-0.4,0.1c4.7,14.9,9.7,29.8,12.8,45.2c1.9,9.4,1.5,18.9,1.5,28.4c-0.5-0.7-1-1.5-1.6-2.2c-0.3-0.4-1,0.1-0.7,0.6
			c0.8,1.3,1.6,2.6,2.3,4c0,5,0.2,9.9,0.9,14.9c0.1,0.9,1.6,0.7,1.6-0.2c0-3.2,0-6.4,0-9.6c5.1,12.1,6,25.3,4.7,38.7
			c-1.9,19.4-6.9,38.4-9.6,57.7c-0.2,1.3,1.6,1.8,2,0.5c0-0.1,0-0.1,0-0.2c1.2,0.2,2.3,0.7,3.3,1.2c1.5,0.9,2.2,2.1,3.2,3.5
			c0,0,0,0,0,0c0,0.1,0,0.2,0,0.3c2.2,5.3,0.8,10.6,0,16.1c-0.5,3.6-0.2,7.1,0.5,10.7c0.8,4.3,1.8,8.5,2.2,12.8
			c0.2,2,0.2,3.9-0.1,5.9c-0.3,1.8-1.4,3.2-2,4.9c-0.2,0.7,0.5,1.1,1.1,0.8c2.9-1.6,3.2-6,3.3-8.9c0.1-4.5-1-9.1-1.9-13.5
			C117.4,416.2,117.1,411.4,117.8,406L117.8,406z"/>
		<path class="st0" d="M102.7,415c0.1-0.1,0.2-0.3,0.1-0.5c-0.7-4-2.3-7.8-3.4-11.8c-1.3-4.4-2.3-8.9-3.1-13.4
			c-1.8-9.3-2.6-18.8-3-28.3c-0.8-17.5,2-35.5-1.7-52.8c0-0.1-0.2-0.1-0.2,0c1.2,9.3,0.5,18.5,0,27.9c-0.5,9.2-0.7,18.2-0.3,27.4
			c0.4,8.9,1.3,17.7,2.9,26.4c1.2,6.6,2.4,14.4,5.4,20.8c1.6,6.1,2.8,12.3,4.2,18.4c1.8,7.7,4.1,15.4,9.7,21.2
			c0.8,0.9,2-0.4,1.3-1.3C106.7,439.2,106.4,426.4,102.7,415L102.7,415z"/>
		<path class="st0" d="M111.5,53.6c-0.1-0.3-0.5-0.2-0.5,0.1c0.4,5-0.5,10,0,15.1c0.3,3.6,2.2,7.2,4.4,10c4.2,5.4,12.5,5.7,18.6,7.4
			c0.2,0,0.3,0,0.4-0.1c5,3,8.4,5.7,9.7,11.7c1.3,5.9,1.6,12,2.2,18c0.6,6.2,1.3,12.4,3.1,18.4c1.4,4.7,4,11,8.7,13.3
			c0.5,0.3,1.1-0.4,0.6-0.8c-2-2.2-3.9-4-5.3-6.7c-1.7-3.1-2.6-6.5-3.4-9.8c-1.6-6.6-2.1-13.5-2.6-20.3c-0.4-5.4-0.5-11.5-2.5-16.6
			c-1.8-4.4-5.8-6.9-10.3-7.9c0-0.1-0.1-0.3-0.3-0.3c-5.2-2.7-11.2-2.3-16.2-5.6C109.5,73.7,113.6,62.2,111.5,53.6z"/>
		<path class="st0" d="M56.4,105.4c0.8-5.6,0.8-11.3,3-16.6c1.5-3.4,4.1-5.7,7.7-6.8c2.1-0.6,4.1-1,6-1.6c0,0-0.1,0.1-0.1,0.1
			c-0.7,0.7,0.2,1.8,1,1.3c3.2-1.7,6.2-3.3,9.6-4.6c2.3-0.8,4.7-1.8,6.2-3.8c4.4-5.7,3.1-14.6,0.8-21.3c0,0,0-0.1,0-0.1
			c-1.3-4.1-3.2-7.9-4.2-12.2c-1.2-5.3-0.9-10.7,1-15.7c0.7,0.5,1.5,0.9,2.4,1.2c2.7,1,5.5,0.9,8.3,0.6c1-0.1,1-1.9,0-2.1
			c-2.4-0.4-5.6-0.8-8.1-1.9c2.2,1,5.2,1.1,6.7,0.8c6.4-1.1,11.9-5.7,11.9-12.6c0-0.4,0-0.9-0.1-1.4c0.9,0.1,1.9,0.1,2.8,0.2
			c4.7,4.9,10.9,8.2,16.4,12.2c0.7,0.5,1.4-0.3,1.3-1c0-0.2-0.1-0.4-0.1-0.6c1.3,1.2,2.3,2.5,2.8,3.9c0.3,0.8,1.7,0.8,1.7-0.2
			c-0.2-2.5-3-4.9-5.5-6.8c-2.6-5.9-8.2-8.2-14.5-8.7c-0.5-0.1-1.1-0.2-1.6-0.3c-0.2,0-0.4,0.1-0.5,0.2c-1,0-1.9,0-2.9,0.1
			c-0.7-2.9-2.5-5.7-5.1-6.9C96.8-2,89.6,4.2,86.1,9c-3.5,4.9-3.8,11,0.4,14.5C82.4,32.8,84,44,89,52.7c0.2,0.3,0.5,0.4,0.8,0.4
			c1.6,7.1,3.3,16.8-3,21.1c-3.5,2.4-8.1,2.5-11.7,4.6c-3.5,1.1-7.4,0.8-10.8,2.4c-2.7,1.3-4.5,3.4-5.9,6
			c-2.8,5.3-2.9,12.2-2.7,18.1C55.8,105.7,56.4,105.8,56.4,105.4L56.4,105.4z M126.7,18.5L126.7,18.5c-4.2-2.7-8.6-5.4-12.3-8.7
			c3.1,1.1,6,3.4,8.5,5.2c1,0.7,2.1,1.5,3.3,2.4C126.4,17.7,126.5,18.1,126.7,18.5z M89.8,21.8L89.8,21.8
			C89.9,21.9,89.9,21.9,89.8,21.8C89.9,21.9,89.9,21.9,89.8,21.8z M95,13.8L95,13.8c-1.2-0.2-2.1,0.2-2.8,0.9c-0.2,0-0.4,0-0.7,0.1
			c0.2-0.4,0.6-0.8,1.3-1.2c1.1-0.8,2.1-0.6,2.3,0.3C95.1,13.8,95.1,13.8,95,13.8z M89.8,18.1L89.8,18.1c0.3,0.5,0.8,0.7,1.3,0.8
			c0,0.5,0.1,1,0.3,1.4C90.3,19.9,89.5,19.3,89.8,18.1L89.8,18.1z M86.6,15.9L86.6,15.9c0.8-4.7,4.7-9.1,8.7-11.5
			c4.7-2.8,9-1.4,10.7,3.7c-0.1,0.2,0,0.5,0.2,0.6c1.9,6.9-5.6,11.7-11.5,12c-0.3,0-0.7,0-1.1,0c1.4-0.9,2.5-2.4,3.1-4
			c0.4,0.6,0.7,1.5,0.5,2.8c0,0.3,0.4,0.4,0.5,0.1c0.8-2,0.8-3.9-0.6-5c0-1.8-0.9-3.6-3-3.2c-2.3,0.4-4.3,2.1-4.6,4.3
			c-0.7,0.5-1.2,1.3-1.5,2.2c-0.5,1.7,0.2,2.9,1.4,3.7C87.4,20.4,86.2,18.7,86.6,15.9z"/>
		<path class="st0" d="M69.7,158.8c0.6-0.8-0.3-1.7-1.1-1.1c-3.2,2.5-6,3.4-8.7-0.2c-2-2.7-2.9-6-3.6-9.2c-0.8-3.6-0.7-7-0.7-10.7
			c0-6.7-0.2-13.5-0.3-20.2c0,0-0.1,0-0.1,0c-0.1,8.1-0.5,16.1-1.1,24.2c-0.3,3.7,0.5,7.6,1.6,11.2c1,3.3,2.6,6.8,5.6,8.6
			C64.3,163.4,67.7,161.3,69.7,158.8L69.7,158.8z"/>
	</g>
	<g id="_2169367362960">
		<path class="st1" d="M131.5,126C131.5,126,131.5,126,131.5,126C131.5,126,131.5,126,131.5,126z"/>
		<path class="st1" d="M131.2,126.3c0.1-0.1,0.2-0.2,0.2-0.3C131.5,126.1,131.4,126.2,131.2,126.3z"/>
		<path class="st1" d="M283.3,148.5C283.3,148.4,283.3,148.4,283.3,148.5c-0.1-0.7-0.8-1.2-1.4-1.4c-1.9-0.6-4.6-0.1-6.5,0
			c-3.7,0.1-7.4,0.3-11.1,0.6c-11.9,0.9-23.6,1.7-35.5,1.9c-13.4,0.2-26.9,1-40.1,3.4c-4.9,0.9-9.7,2.3-14.3,4.1
			c-1.3-0.3-2.6-0.5-3.9-0.7c-2-0.3-4.3,1.6-3,3.7c-4.5,2.1-8.9,4.2-13.7,5.6c-0.1,0-0.1,0.2,0,0.2c5-0.8,9.6-2.9,14.2-5
			c3,4.3,6.7,7.7,10.7,10.7c-8.8-1.9-17.3-4.8-26.4-5.6c-2.7-0.2-4.7,3.3-3.2,5.5c0.4,0.6,0.8,1.2,1.3,1.7c-0.5,0.7-0.6,1.6-0.1,2.4
			c1.2,1.7,2.5,3.2,4,4.7c0.8,0.8,1.7,0.8,2.4,0.5c8.4,8.8,18.4,16.1,28.4,23c4,2.8,8.1,5.6,12,8.5c7.5,9.5,14.5,19.4,22.4,28.6
			c2.3,2.7,7.1,0.6,6.9-2.9c-0.8-15.3-15.9-25.9-27.4-34.2c-2.2-2.7-4.5-5.4-6.9-8c-0.9-0.9-1.8-1.9-2.7-2.8
			c5.9,1.8,11.7,3.8,17.1,6.9c8.1,4.8,15.1,12.4,20.9,19.8c3,3.8,7.1,8,11.6,9.8c5.1,2.1,9.7-2.6,8.3-7.8
			c-1.5-5.6-7.2-10.4-11.2-14.3c-2.7-2.6-5.2-5.5-7.7-8.3c6.6,2.2,13.4,3.3,20.1,1.1c3.2,1.6,6.1,3.7,7.7,6.8
			c0.5,1.1,1.4,1.6,2.3,1.8c-1.2,2.6-2.4,5.2-3.7,7.8c-5.8,12.1-12.9,23.4-19.8,34.9c-2.6,4.4-5.2,8.8-7.8,13.3c0-0.1,0-0.2,0-0.2
			c-0.4-2.1-1.3-3.9-2.5-5.5c-8.3-17-20.4-31.5-31.4-46.8c-1.8-2.5-6-0.1-4.2,2.5c8.1,11.4,15.6,23.3,22.3,35.6
			c-1.8-0.8-3.5-1.5-5-2.2c-4.8-2.3-9.2-4.9-13-8.7c-4.8-5-8.5-11.7-12.4-17.5c-14.3-21.1-30-42-49.2-58.8c-0.6-1.4-2-2.2-3.5-2.1
			c-1.9,0-3.8,1.2-3.7,3.6c0,0.4,0,0.7,0.1,1c0.3,1.6,1.1,3.1,1.7,4.6c-0.6-0.7-1.3-1.3-2-1.9c0.8-0.7,0.7-2.2-0.6-2.5
			c-2.2-0.6-3.3-2-3.9-3.8c0.9-2.5,1.8-5,2.7-7.5c1.3-3.6,2.6-7.2,3.5-10.8c1.8-5.5,3.6-11.2,4.4-16.8c0.2-0.1,0.3-0.2,0.4-0.3
			c0,0,0,0,0.1-0.1l0,0c0.1-0.1,0.1-0.1,0.2-0.2c0.1-0.1,0.1-0.1,0.1-0.1c0.3-0.5,0.2-1.1-0.1-1.6c0.5-0.8-0.2-2.2-1.4-1.9
			c-4.9,1.3-9.8,2.7-14.7,3.9c1.5-6.7,3.7-13.1,5.9-19.6c2.6-7.4,5.6-15.3,5.8-23.3c0-1.1-1.5-1.3-1.8-0.3
			c-2.2,8.2-4.3,16.3-7.1,24.3c-2.3,6.4-4.5,12.8-5.7,19.5c-3.6,0.8-7.2,1.5-10.9,1.8c-5.3,0.6-10.2-0.3-15.5-1.1
			c-1.5-0.2-3.1-0.4-4.7-0.7c0.4-7.7-2-16.4-3.5-23.8c-1.5-7.6-4.1-15.4-3.8-23.3c0-0.5-0.6-0.7-0.9-0.4c-4.1,3.8-0.7,13.3,0.1,17.8
			c0.9,5,1.9,10.1,2.8,15.1c0.8,4.6,1,9.4,1.8,14c0,0,0,0-0.1,0c-2.3-0.4-3.9-1.7-6.3-1.4c-0.2,0-0.3,0.2-0.2,0.4
			c-0.2,0.3-0.3,0.8,0,1.1c1.1,1.2,1.9,2.5,2.5,3.9c-0.2,0.8-0.4,1.7-0.5,2.6c-0.2,0.9,0.7,1.6,1.4,1.4c-0.2,0.6-0.3,1.2-0.4,1.9
			c-0.2,0.9,0.5,1.8,1.3,1.9c-0.2,0.4-0.3,0.9-0.4,1.4c-0.1,0.4-0.1,0.8,0.1,1.2c0,1,0.9,1.7,1.9,1.6c-0.5,0.9-1,1.7-1.5,2.6
			c-0.6,1.1,0.2,2.4,1.2,2.7c-0.3,0.5-0.5,0.9-0.7,1.3c-0.6,1.1,0,2.1,0.8,2.5c-0.3,0.7-0.7,1.4-1,2.1c-0.3,0.6-0.1,1.3,0.2,1.8
			c-0.6,0.8-1.2,1.6-1.8,2.5c-0.6,0.9-0.1,1.9,0.7,2.3c-0.4-0.2-0.8-0.3-1.3-0.3c-13.4-1.5-23,14.7-28.3,24.7
			c-8.9,16.9-15.6,35.4-22.3,53.2C16,257.8,11.3,277.9,8,298.8c-1.1,7-0.9,14.1-1.1,21.1c-0.2,4.9-0.6,9.6-1.3,14.3
			c-3.4,0.7-6.5,4-5.1,7.7c3,8.3,11.4,12.2,19,15.4c8,3.4,16.2,6.2,24.7,8.1c7.2,1.7,14.6,2.8,22,3.5c1.1,1.6,3.4,1.8,4.8,0.3
			c4.8,0.3,9.5,0.3,14.3,0.1c0.6,3.7,1.6,7.3,3.1,10.7c1.3,2.8,5.2,1.1,5.4-1.4c0.3-3.3,0.3-6.6,0.1-9.8c8.1-0.9,16.1-2.5,23.9-4.9
			c3.7-1.2,7.3-2.5,10.9-3.9c0.3,0.8,0.6,1.7,1,2.5c1.8,4.6,8.8,4.2,8.9-1.2c0-1.9,0-3.8,0-5.7c17.2-8.2,33.3-18.8,49.1-29.1
			c10.3-6.7,20-14.4,27.5-24.1c7.7-10,13.2-21.7,19.3-32.7c11.3-20.4,23.1-40.1,31.8-61.8c3.8-9.5,8.4-18.6,12.1-28.2
			c3.4-9.1,6.5-19.2,3.4-28.8C282.6,150.6,283.5,149.7,283.3,148.5L283.3,148.5z M76.2,128.4L76.2,128.4c-0.2-0.5-0.8-0.6-1.2-0.3
			c-0.3-0.5-0.6-0.9-1-1.4c0.9,0.4,1.8,0.7,2.8,1C76.5,128,76.4,128.2,76.2,128.4z M108.6,134.9L108.6,134.9
			c-0.9,0.9-1.8,1.9-2.7,2.8c1.3-2.1,2.4-4.2,3.5-6.5c0.2-0.3,0.2-0.7,0-1c0.8-0.2,1.7-0.3,2.5-0.5c0,0.4-0.1,0.8-0.2,1.1
			c-0.2,1.5,2.4,1.9,2.7,0.4c0.1-0.7,0.3-1.4,0.4-2.2c1.4-0.3,2.8-0.7,4.2-1.1c-0.1,0.2-0.1,0.4-0.1,0.7c0,0,0,0,0,0.1
			c0,0.1,0,0.2,0,0.3c0,0.4,0.1,0.7,0.2,1.1c0.2,0.8,0.3,1.7,0.4,2.5c0.3,3.2,0.1,6.4,0.1,9.6c0,1,0.6,1.8,1.4,2.2
			c-0.7,2.5-1.5,4.9-2.4,7.3c-0.6-0.8-1.8-0.9-2.6-0.2c-2.8,2.5-3.9,6.4-6,9.4c0,0,0,0,0,0c0-0.1,0-0.3,0-0.4c0-0.2,0-0.3,0-0.4
			c0.5-5.9,5-12.3,6.7-17.5c0.5-1.6-1.5-2.5-2.6-1.5c-0.2,0.1-0.3,0.3-0.5,0.4c1.5-2.9,3-5.9,4.6-8.9c0.6-1.1-0.9-2.4-1.8-1.4
			c-3.3,3.8-6.6,7.6-9.8,11.4c-0.4-0.3-0.9-0.5-1.4-0.5c1.7-1.9,3.3-3.8,4.9-5.8C110.8,135.3,109.5,133.9,108.6,134.9L108.6,134.9z
			 M116.1,158.1L116.1,158.1c-0.5,1.2-0.9,2.4-1.4,3.6c-0.3-0.1-0.7-0.3-1-0.4c0.8-1.5,1.4-3,2.3-4.4
			C116,157.2,116.1,157.7,116.1,158.1L116.1,158.1z M105.5,149.6L105.5,149.6c-1.6,2.5-3.2,4.8-4.9,7.3c-0.5,0-1-0.1-1.5-0.1
			c3.3-3.8,6.3-7.9,9.4-12C107.5,146.4,106.5,148,105.5,149.6z M107.5,156L107.5,156c-0.2,0.6-0.4,1.1-0.5,1.7
			c-0.2-0.1-0.4-0.1-0.7-0.1c0.3-0.4,0.7-0.9,1-1.3C107.3,156.2,107.4,156.1,107.5,156L107.5,156z M98,142.4L98,142.4
			c2.4-2.4,4.8-4.8,6.9-7.5c-2,3.3-4.2,6.4-6.5,9.4c0,0,0,0,0-0.1C98.5,143.5,98.4,142.9,98,142.4z M101.7,134.3L101.7,134.3
			c-1.3,1.3-2.7,2.6-4,3.8C99,136.8,100.3,135.5,101.7,134.3z M101.7,145.9L101.7,145.9c-0.9,1.3-1.9,2.5-2.8,3.8
			c-1,1.4-2.5,3.1-3.3,4.9c-0.2-0.2-0.3-0.4-0.5-0.6c0.2-0.5,0.3-1,0.5-1.5C97.7,150.3,99.7,148.1,101.7,145.9L101.7,145.9z
			 M95.2,134.5L95.2,134.5c0.7-0.6,1.5-1.1,2.3-1.5c-0.4,0.8-0.9,1.5-1.4,2.2c-0.8,0.8-1.6,1.6-2.3,2.3
			C94.3,136.5,94.8,135.5,95.2,134.5z M85.9,130L85.9,130c0.5,0.1,1,0.2,1.5,0.3c-0.6,0.4-1.1,0.7-1.6,1.1c0-0.3,0.1-0.6,0.1-0.9
			C85.9,130.3,85.9,130.1,85.9,130L85.9,130z M83.2,152.9L83.2,152.9c0.2-0.2,0.4-0.4,0.6-0.7c-0.1,0.1-0.2,0.2-0.3,0.4
			c-0.5,0.6-1,1.2-1.5,1.8c0,0-0.1,0-0.1,0C82.4,153.9,82.8,153.4,83.2,152.9L83.2,152.9z M77.1,160.3L77.1,160.3
			c0,0.2,0,0.5,0.1,0.7c-0.1,0.2-0.2,0.3-0.3,0.5c-0.3-0.3-0.7-0.6-1.2-0.8C76.2,160.8,76.7,160.7,77.1,160.3L77.1,160.3z
			 M30.1,250.7L30.1,250.7c6.6-18.7,14.1-37.2,22.3-55.3c0.9-2.1,2-4.3,3.1-6.5c-3,8.5-5.1,17.3-7.5,26c-0.6,2.2-1.3,4.3-2,6.4
			c-0.7,1.9-1.3,3.8-2,5.7c-3,8.1-6.6,15.9-10.1,23.9c-4,9.1-8,18.3-11.4,27.7C24.4,269,26.9,259.7,30.1,250.7L30.1,250.7z
			 M64.1,285.4L64.1,285.4c-1,14.4-1.1,28.9-1.7,43.3c-0.3,8.7-0.7,17.9,0.4,26.7c-7.6-1-15.2-2.6-22.6-4.9
			c-9.2-2.8-21.2-6.7-28-13.2c1.3-3.3,2-6.9,2.6-10.1c1.4-7.3,2-14.7,2.7-22.1c0.1-1,0.2-1.9,0.3-2.9c1.3,0.4,2.8,0.1,3.8-1.2
			c4.7-6.3,7.7-13.5,10-21c2.8-8.7,5.6-17.3,8-26c0.3-1.1,0.6-2.1,0.9-3.2c4.6-10.4,9.6-20.7,12.4-31.7c2.6-10.1,4.8-20.2,8-30.1
			c0.5-1.7,1.2-3.4,1.8-5.1c-6.7,25.2-12.4,50.7-18.6,76c-3.2,13.1-6.6,26.1-10.3,39.1c-0.6,2.1-1.2,4.2-1.9,6.3
			c-1.7,4.8-3.5,9.6-5.5,14.3c-2.3,5.7-4.7,11.3-5.6,17.4c0,0,0,0,0,0.1c0,0,0,0,0,0c0,0.2-0.1,0.4-0.1,0.6c-0.3,2.8,3.8,3,4.6,0.6
			c1.9-5.4,3.6-11,5.2-16.5c0.3-0.8,0.7-1.6,1-2.3c2.5-6.1,4.7-12.3,6.9-18.6c4.4-12.8,8.2-25.9,11.8-39
			c3.7-13.4,6.6-27.1,10.1-40.6c0.3-1.3,0.7-2.6,1-3.9c0,0.3-0.1,0.5-0.1,0.8c-2,13.5-4.5,26.9-6.1,40.5c-0.2,1.3-0.3,2.5-0.5,3.7
			c-2.3,11.2-3.9,22.4-4.7,33.8c-0.1,1.2-0.3,2.3-0.4,3.5c-1.6,13.8-3,27.6-4.1,41.5c-0.3,3.9,6,4.7,6.8,0.9
			c2.7-13.1,3.1-26.4,3.6-39.7c0-0.5,0-1,0.1-1.5c1.3-13.5,3.5-26.9,4.8-40.3c0.1-0.3,0.1-0.6,0.2-0.9c3-14.6,7-29,10.3-43.5
			C69.2,239.4,65.6,262.3,64.1,285.4L64.1,285.4z M72,331.4L72,331.4c-0.1,7.6,0.2,16.8-1.9,24.8c-0.3,0-0.6,0-0.9-0.1
			c-1.4-9-1-18.5-0.8-27.4c0.3-14.4,0.4-28.9,1.2-43.3c0.5-9.4,1.3-18.8,2.3-28.3c0.3,10.7,0.8,21.4,1,32.2
			C73,303.3,72.1,317.3,72,331.4z M84.4,356.4L84.4,356.4c-0.6,0-1.2,0-1.8,0.1c-2.2,0-4.3,0-6.4,0c1.3-6.3,1.5-13.1,1.7-19.2
			c0.5-13.1,0.9-26.2,1-39.2c0.2-17.7-0.9-35.3-1.3-53c-0.2-8.8-0.1-17.7,0.2-26.5c0.2-5.7,0.4-11.7,1.6-17.3
			c1.6,10.8,0.5,22,0.9,32.9c0.6,16.7-0.1,33.5-0.3,50.2c-0.2,15.9-0.6,31.7,1.9,47.4c0.8,5.1,1.9,10.1,2.8,15.2
			C84.7,350.2,84.5,353.3,84.4,356.4L84.4,356.4z M120.5,349.9L120.5,349.9c-9.2,3.3-18.4,5.2-28,6c-0.6-3.9-1.3-7.9-2-11.8
			c0.2-2.7,0.5-5.3,0.6-7.8c1.1-16.7-0.5-33-1.7-49.6c-1.4-19.1-1.5-37.9-0.8-57.1c0.3-9.8,0.6-19.6,0.6-29.4
			c0-3.6,0.2-7.4-0.2-11.1c4.8,25.7,6,51.9,10.5,77.7c2.8,15.6,6.3,31,11.9,45.8c4.5,11.8,8.5,23.8,12.8,35.7
			C123.1,349,121.8,349.5,120.5,349.9L120.5,349.9z M120.9,311.8L120.9,311.8c-6.1-14.6-9.8-30.1-12.7-45.6
			c-5.7-31-8.4-62.8-17.3-93.1c-0.5-1.8-2.9-2.6-4.3-1.1c-5.6,5.8-2.5,12.5-2.3,19.7c0.1,2.6,0.1,5.1,0.1,7.7
			c-0.4-2.8-1-5.6-1.8-8.3c-0.6-2.1-3.7-2.7-4.8-0.6c0,0,0,0.1,0,0.1c0.1-3.8,0.1-7.6,0-11.3c-0.1-3.3-4.7-3.1-5,0
			c-1.3,13.7-4.2,27.1-7.5,40.5c0.7-6.1,1.2-12.3,1.7-18.4c0.1-1.2,0.2-2.4,0.3-3.5c1.4-4.9,2.5-9.9,2.7-14.9
			c0.1-1.6-2.1-1.6-2.6-0.3c-2.2,5.3-3.3,11.2-4.1,17.1c-0.5,1.3-1.1,2.6-1.7,3.9c-2.6,6-4.4,12.2-6,18.5
			c-3.6,13.5-6.5,27.1-10.2,40.5c0.2-0.7,0.3-1.3,0.5-2c5.8-25.8,10.9-51.7,17.2-77.4c1.5-3.8,3.3-7.6,5.6-11c2-1.3,4.2-2.2,6.6-2.7
			c2.4-0.4,3.4-2.1,3.4-3.8c0.1-0.2,0.3-0.4,0.4-0.6c0.8,0.3,1.7,0.6,2.6,0.8c0.4,0.4,0.9,0.5,1.5,0.4c3.5,0.9,7,1.6,10.6,2
			c-0.8,2,1.8,3.5,3.1,1.7c0.3-0.4,0.6-0.8,1-1.3c0.2,0,0.4,0,0.6,0.1c2.2,0.1,5,0.3,7.8,0.2c0.3,1.5,0.8,3,1.3,4.5
			c-1.7-0.4-3.8,1.1-3.6,2.9c3.3,30.6,10.2,60.5,16.3,90.6c3.1,15.3,6.2,30.7,7.7,46.3c0.7,7.2,1.2,14.4,1.4,21.6
			C126.8,327,124,319.4,120.9,311.8L120.9,311.8z M215.4,285.2L215.4,285.2c-13.5,22.5-36.4,34.3-58.4,47c-6.2,3.6-12.6,7.1-19,10.2
			c-1.5-24.3-6.4-48.6-11.1-72.3c-5.8-29.3-12.7-58.5-16.3-88.2c0.4,0.4,0.8,0.9,1.2,1.5c0.9,1.8,1.8,3.5,2.8,5.2
			c2.1,5.4,3.1,11.8,4.1,15.9c3.4,13.9,8.3,27.5,12.3,41.2c4.3,14.8,7.9,29.7,10,45c0.9,6.7,2,13.3,3.9,19.7
			c0.8,2.8,1.9,5.7,3.4,8.3c1.5,2.7,4.5,4.5,5.5,7.6c1.2,3.6,7.5,4.5,8.3,0c3.8-23.6-1.9-47.7-9.5-70c-3.9-11.5-8.6-22.7-13.5-33.9
			c-4.9-11.2-9.6-22.2-15.8-32.8c-3.3-5.6-6.7-11.3-8.8-17.4c-0.2-0.7-0.5-1.4-0.7-2.1c0.8,0.4,1.8,0.3,2.6-0.2
			c8.4,5.2,13.7,15.7,18.2,24.1c11.6,21.5,19.2,44.3,27.3,67.3c6,17.1,12.9,33.9,31.4,40.3c2.5,0.9,5.3-1.4,5.2-4
			c-0.2-11.8-5.7-22.6-10.7-33c-2.8-5.9-5.3-11.9-8.5-17.7c-3.7-6.8-7.9-13.3-12.1-19.8c-7.1-11.1-12.3-23.3-20.3-33.8
			c-3-3.9-6.8-7.5-9.4-11.7c-0.9-1.5-1.5-3.2-1.9-4.9c4.2,4.4,8.3,8.9,12.3,13.5c8.4,9.9,15.6,20.6,23.7,30.8
			c7.5,9.5,14.6,20.7,24.3,28c4,3,8.6,5,13,7.3c2.9,1.6,6.7,3.2,9.1,5.7c0.8,1.7,1.7,3.4,2.5,5c1,2.1,2.9,2.3,4.5,1.6
			C221.8,274.4,218.6,279.8,215.4,285.2L215.4,285.2z M129.5,217.6L129.5,217.6c3.6,8.3,7.1,16.7,10.3,25.2
			c8.4,22.1,16,46.3,15,70.2c-0.8-1.4-1.4-2.9-1.9-4.7c-2.4-7.2-3.4-14.9-4.5-22.4c-2.5-16.5-7.3-32.5-12.4-48.3
			C133.8,230.9,131.6,224.3,129.5,217.6L129.5,217.6z M155.8,221.2L155.8,221.2c0.7,1.3,1.4,2.7,2.2,4c7.1,12.7,15.4,24.6,20.6,38.3
			c3.5,9.1,8.7,17.9,10.8,27.6c-6.8-4-11.4-10.3-15-17.6c-5.1-10.4-8.2-22-11.8-33C160.5,233.9,158.3,227.5,155.8,221.2L155.8,221.2
			z M176.9,181.6L176.9,181.6c-2.6-1.9-5.4-3.7-8.2-5.1c3.9,1.1,7.8,2.2,11.7,3.1c0.1,0,0.3,0.1,0.4,0.1
			C179.5,180.2,178.2,180.8,176.9,181.6L176.9,181.6z M176.5,162L176.5,162c10.7,1.8,20,7.6,28.7,14.3c-3-0.6-5.9-1.2-8.9-1.7
			C189.3,171,182.4,167.2,176.5,162z M207.5,192.4L207.5,192.4c-6.4-3.5-13.6-5.1-20.5-7.2c7.9-1.2,16.3,2.6,23.8,6
			c5.7,4.7,10.7,10.3,15.2,16.2c0.1,0.2,0.3,0.4,0.5,0.5C220.9,201.8,214.7,196.4,207.5,192.4L207.5,192.4z M237.3,218.9
			L237.3,218.9c0.8,0.9,1.6,1.8,2.3,2.7c0.2,0.3,0.4,0.5,0.5,0.7c-0.7-0.5-1.4-1.1-2.1-1.6c-3.7-3.1-6.7-6.9-9.8-10.6
			C231.2,213.2,234.5,215.9,237.3,218.9z M262.1,201L262.1,201c-3.2-6.7-9.5-12.8-14.2-18.1c-2.2-2.6-4.7-5.1-7.1-7.6
			c1.6,1.2,3.1,2.5,4.7,3.7c6.2,4.9,12.5,11.4,20,14.6C264.3,196.1,263.2,198.6,262.1,201z M277.2,161.9L277.2,161.9
			c-1.7-1.4-4-1.4-6-0.9c-2.1,0.5-3.3,2.9-2.8,4.9c0.6,2.1,2.7,3.2,4.7,2.8c0,0,0,0,0,0c0.2,0.3,0.3,0.5,0.4,0.8
			c0,0.1,0.1,0.1,0.1,0.2c-2.3-0.8-4.6-1.6-6.8-2.8c-3.5-1.8-6.8-4-10.4-5.7c-0.9-0.4-1.6,0.8-0.8,1.3c3.9,2.6,7.4,5.7,11.3,8.4
			c1.8,1.3,4.1,3,6.5,3.6c-1,2.7-2,5.4-3.2,8.1c-2.8-5.3-8.3-9.6-11.8-14.1c-1.6-2.2-5-0.3-3.7,2.2c1.8,3.4,5.9,7.6,8.1,11.9
			c-0.8-0.7-1.6-1.3-2.4-1.9c-4.8-3.5-9.4-7.1-14.2-10.6c-3.3-2.4-17.9-14.9-21.9-8.2c-1.6,2.8,1.3,5.8,2.8,7.9
			c3.1,4,6.4,7.8,9.7,11.7c2.8,3.2,5.5,6.4,8.3,9.7c-4-1.2-8.1-2.2-12.1-3.4c-1.4-1-2.8-1.9-4-2.7c-3.4-2.2-7.2-3.8-11.1-5.2
			c-6.5-4.6-12.7-9.8-19.7-13.8c-6.6-3.9-14-6.8-21.6-8.5c3.2-1,6.4-1.7,9.8-2.3c13.4-2.2,27.2-2.1,40.7-2.3
			c12-0.1,23.9-0.6,35.8-1.7c3.3-0.3,6.6-0.5,9.9-0.6c1.6-0.1,3.1-0.1,4.7-0.2c0.5,0,1.1,0,1.6,0c0,0.1-0.1,0.1-0.1,0.2
			C278.9,154.6,278.1,158.3,277.2,161.9L277.2,161.9z"/>
	</g>
</g>
</svg>
